<?xml version="1.0" encoding="UTF-8"?>
<!DOCTYPE svg PUBLIC "-//W3C//DTD SVG 1.1//EN" "http://www.w3.org/Graphics/SVG/1.1/DTD/svg11.dtd">
<!-- Creator: CorelDRAW -->
<svg xmlns="http://www.w3.org/2000/svg" xml:space="preserve" width="151.198mm" height="123.471mm" version="1.1" style="shape-rendering:geometricPrecision; text-rendering:geometricPrecision; image-rendering:optimizeQuality; fill-rule:evenodd; clip-rule:evenodd"
viewBox="0 0 10421.4 8510.26"
 xmlns:xlink="http://www.w3.org/1999/xlink"
 xmlns:xodm="http://www.corel.com/coreldraw/odm/2003">
 <defs>
  <style type="text/css">
   <![CDATA[
    .fil7 {fill:black}
    .fil51 {fill:#028A83}
    .fil45 {fill:#035F55}
    .fil53 {fill:#04656B}
    .fil48 {fill:#078A84}
    .fil12 {fill:#0B7667}
    .fil31 {fill:#0E63B2}
    .fil23 {fill:#132E73}
    .fil3 {fill:#160C2C}
    .fil38 {fill:#197EAD}
    .fil24 {fill:#261C47}
    .fil22 {fill:#274792}
    .fil46 {fill:#2B8D76}
    .fil37 {fill:#2D99C0}
    .fil49 {fill:#2FA7A6}
    .fil36 {fill:#32A7A4}
    .fil52 {fill:#32ABA8}
    .fil2 {fill:#3B2966}
    .fil35 {fill:#48BBC4}
    .fil1 {fill:#4B446D}
    .fil13 {fill:#5698EC}
    .fil65 {fill:#5699EC}
    .fil55 {fill:#5FA157}
    .fil40 {fill:#67A0D6}
    .fil42 {fill:#7BC257}
    .fil11 {fill:#89B2E8}
    .fil41 {fill:#9DDE74}
    .fil0 {fill:#A2C6F9}
    .fil39 {fill:#A5D0F6}
    .fil30 {fill:#A83180}
    .fil56 {fill:#AA3B43}
    .fil68 {fill:#C40F0F}
    .fil57 {fill:#C44D51}
    .fil58 {fill:#C54C4F}
    .fil19 {fill:#C5D5E8}
    .fil21 {fill:#CD0F23}
    .fil17 {fill:#D4BAB9}
    .fil6 {fill:#DA482E}
    .fil43 {fill:#DBEACD}
    .fil16 {fill:#E2D4D4}
    .fil29 {fill:#E6E6E6}
    .fil9 {fill:#E7F0FA}
    .fil10 {fill:#E95B67}
    .fil59 {fill:#EC5967}
    .fil25 {fill:#ED5B65}
    .fil33 {fill:#EF912E}
    .fil14 {fill:#F0EBE2}
    .fil5 {fill:#F18F68}
    .fil62 {fill:#F1B246}
    .fil15 {fill:#F2668F}
    .fil28 {fill:#F4CB5E}
    .fil18 {fill:#F7A88C}
    .fil32 {fill:#F7AB43}
    .fil4 {fill:#F7B990}
    .fil60 {fill:#F7CA5E}
    .fil20 {fill:#F89374}
    .fil34 {fill:#FDC2AA}
    .fil27 {fill:#FFC526}
    .fil26 {fill:#FFE070}
    .fil8 {fill:white}
    .fil50 {fill:#128039;fill-rule:nonzero}
    .fil54 {fill:#2FA7A6;fill-rule:nonzero}
    .fil66 {fill:#356CBF;fill-rule:nonzero}
    .fil44 {fill:#65AD5A;fill-rule:nonzero}
    .fil61 {fill:#DB8503;fill-rule:nonzero}
    .fil64 {fill:#DE8A2A;fill-rule:nonzero}
    .fil47 {fill:#E6C84E;fill-rule:nonzero}
    .fil67 {fill:#6488BD;fill-opacity:0.470588}
    .fil63 {fill:#F7CE49}
   ]]>
  </style>
 </defs>
 <g id="Слой_x0020_1">
  <metadata id="CorelCorpID_0Corel-Layer"/>
  <g id="_2642856674352">
   <rect class="fil0" x="2893.21" y="2669.47" width="2010.21" height="5689.71"/>
   <path class="fil1" d="M6835.51 370.43c-109.91,-330.66 -858.9,-25.87 -858.9,556.08 0,126.64 99.1,374.39 -71.57,495.52 -170.68,121.14 -401.91,71.58 -495.51,258.77 -140.95,281.88 42.15,549.53 291.8,688.22l1668.23 66.06c357.14,-334.34 344.52,-518.61 11.01,-809.34 -167.75,-146.23 22.03,-407.42 60.56,-583.6 38.54,-176.19 22.01,-302.82 -115.63,-412.94 -160.84,-128.68 -225.6,-448.17 -490,-258.77z"/>
   <path class="fil2" d="M6409.62 1585.09l-113.33 520.8 -594.98 119.62c-156.36,-162.62 -251.63,-350.82 0,-459.62 116.47,-50.36 264.43,-91.28 336.84,-201.47 72.41,-110.18 75.56,-270.73 75.56,-270.73 0,0 -22.04,-144.81 -53.52,-217.22 -31.48,-72.41 -25.17,-91.28 -9.44,-144.81 15.74,-53.52 6.29,3.15 31.48,62.96 25.19,59.81 37.78,81.85 37.78,81.85 -67.5,-314.97 145.57,-607.86 437.58,-705.19 122.78,-40.92 220.37,-37.78 220.37,-37.78 -312.53,60.41 -527.46,472.52 -510.24,416.6 278.01,-46.35 358.43,-63 519.69,-290.67 32.9,263.43 -339.79,378.35 -529.3,361.95 -30.58,-4.36 -53.18,149.9 -53.18,183.16 0,0 12.67,-22.51 251.92,-79.18 254.64,-60.32 353.01,-94.24 491.11,-321.12 0,0 15.74,53.52 15.74,103.89 0,50.37 -12.6,110.18 -12.6,110.18 0,0 50.37,-53.51 44.08,-201.48 -6.3,-147.96 -47.22,-214.08 -47.22,-214.08 145.69,140.66 102.21,259.63 258.15,380.92 189.82,147.64 177.83,287.63 47.22,478.52 -40.92,59.81 -107.03,97.58 -107.03,176.29 0,78.71 -44.07,40.92 88.15,204.63 137.38,170.09 327.71,297.79 160.55,554.08 -47.23,72.41 -72.41,85 -72.41,85l-623.33 -132.22 -28.34 -503.7 -261.3 -61.19z"/>
   <path class="fil3" d="M5833.51 2250.72c-133.72,-490.34 119.13,-292.47 292.78,-424.99 119.63,-91.3 210.93,-302.22 210.93,-302.22 0,0 604.45,69.26 727.22,166.85 265.2,210.8 357.52,448.17 -22.04,604.44l-1208.89 -44.07z"/>
   <path class="fil4" d="M6328.89 1609.85l421.66 148.48 74.34 293.64c88.64,0.69 142.98,26.78 206.5,35.85 0,0 -1.71,302.98 -209.57,395.04 -207.86,92.06 -219.73,181.14 -484.01,68.3 -264.28,-112.84 -296.94,-460.26 -296.94,-460.26 54.4,-18.13 154.88,-19 190.14,-70.17 9.76,-47.85 59.4,-234.86 97.89,-410.88z"/>
   <path class="fil5" d="M6767.69 1826.01l57.2 225.96 3.63 0.05c-166.2,114.73 -496.14,36.59 -590.54,-61.96 17.11,-71.7 56.38,-223.55 88.65,-369.88l441.06 205.83z"/>
   <path class="fil6" d="M6767.69 1826.01l28.16 111.24c-195.6,56.72 -373.47,-38.25 -500.04,-183.38l0.48 -2.04 0.49 -2.04 0.02 -0.07 0.47 -1.98 0.48 -2.05 3.42 -14.38 0.4 -1.69 0.08 -0.38 0.49 -2.07 0.48 -2.07 0.99 -4.14 0.48 -2.08 0.49 -2.07 0.17 -0.7 0.31 -1.38 0.49 -2.07 0.79 -3.34 0.19 -0.83 0.49 -2.08 0.49 -2.09 0.42 -1.8 0.06 -0.29 0.49 -2.1 0.48 -2.09 0.49 -2.1 0.07 -0.26 0.42 -1.83 0.48 -2.1 0.49 -2.1 0.19 -0.81 0.3 -1.3 0.48 -2.1 0.81 -3.46 0.17 -0.74 0.96 -4.21 0.44 -1.9 0.04 -0.19 0.48 -2.11 0.48 -2.1 0.48 -2.1 0.09 -0.37 0.39 -1.74 0.48 -2.11 0.48 -2.11 0.21 -0.9 0.27 -1.2 0.48 -2.11 0.48 -2.11 0.33 -1.46 0.14 -0.64 0.48 -2.11 0.48 -2.11 0.45 -2.01 0.02 -0.1 0.48 -2.11 0.48 -2.11 0.47 -2.1 0.11 -0.46 0.37 -1.65 0.47 -2.1 0.48 -2.12 0.22 -1 0.24 -1.1 0.48 -2.1 0.47 -2.11 0.34 -1.56 0.12 -0.54 0.46 -2.11 0.46 -2.1 0.47 -2.1 441.06 205.83z"/>
   <path class="fil4" d="M6222.01 1127.13l76.02 -86.88c302.38,-28.65 568.61,-82.89 695.04,-386.31 0,0 -10.79,64.8 93.59,167.38 104.39,102.59 179.98,125.98 183.58,223.17 3.6,97.2 -16.2,149.39 -16.2,149.39l-37.79 79.19c-9.33,268.88 -180.73,601.1 -441.41,628.92 -251.51,26.84 -403.15,-126.37 -516.08,-340.95 -35.99,-68.39 -70.19,-136.79 -70.19,-136.79 0,0 -39.59,34.19 -80.99,1.79 -41.4,-32.39 -97.2,-127.77 -95.39,-239.36 1.8,-111.6 50.39,-151.19 93.59,-147.59 43.2,3.6 116.25,88.04 116.25,88.04z"/>
   <path class="fil5" d="M6239.38 1096.3l50.98 -77.58c306.04,-14.32 568.33,-57.4 708.86,-360.18 15.38,61.49 38.41,95.54 110.51,175.06 130.44,99.63 233.71,183.18 129.13,392.61 -2.81,-12.21 17.91,-14.6 6.67,-62.39 -11.24,-47.79 -18.44,-46.11 -116.82,-182.92 -98.38,-136.8 -121.43,-178.3 -121.43,-178.3 0,0 -86.08,106.06 -209.04,185.99 -186.35,121.13 -527.26,98.12 -601.02,162.93l42.17 -55.22z"/>
   <path class="fil5" d="M6103.97 1170.48c0,0 43.19,-41.4 64.78,23.4 21.6,64.8 16.2,118.78 -8.99,142.18 -25.2,23.4 -64.8,-12.6 -71.99,-61.19 -7.2,-48.59 16.2,-104.39 16.2,-104.39z"/>
   <ellipse class="fil7" cx="6619.72" cy="1264.19" rx="51.41" ry="84.46"/>
   <ellipse class="fil7" cx="7092.05" cy="1343.25" rx="50.4" ry="82.79"/>
   <path class="fil7" d="M6552.75 1069.74c-9.88,-14.18 63.47,-55.61 122.85,-39.42 111.25,30.32 60.78,83.95 -29.9,48.28 -46.35,-21.01 -79,11.16 -92.95,-8.86z"/>
   <path class="fil7" d="M7080.24 1130.33c0.94,-28.16 65.18,-37.94 113.77,-12.74 48.59,25.19 49.47,52.26 24.27,61.26 -29.89,7.13 -21.84,-19.18 -75.82,-24.56 -5.37,-0.53 -66.6,11.41 -62.21,-23.95z"/>
   <path class="fil8" d="M6659.21 1591.22c55.6,53.65 242.49,63.05 252.33,36.47 0,0 -64.71,128.88 -148.77,110.49 -84.06,-18.39 -103.56,-146.96 -103.56,-146.96z"/>
   <path class="fil9" d="M7844.68 2554.87c80.5,-226.9 376.88,-215.47 535.56,-109.69 139.65,-384.02 643.28,-110.03 651.71,193.58 0,0 348.44,46.1 406.51,33.19 222.67,-85.64 284.92,-7.92 348.44,76.49 129.05,25.81 387.16,45.17 277.46,51.63 -109.69,6.46 -2581.03,-12.9 -2581.03,-12.9 8.75,-140.08 239.32,-232.3 361.35,-232.3z"/>
   <path class="fil10" d="M5889.42 2120.6c0,0 157.37,-41.58 213.79,-50.49 56.42,-8.91 65.33,-8.91 65.33,-8.91 47.97,276.51 226.03,430.11 392.28,433.03 240.99,4.25 280.79,-264.03 303.17,-444.02 103.55,17.05 197.83,37.1 283.8,57.48 0,0 104.58,292.04 -147.82,461.29 -252.4,169.26 -371.18,305.85 -697.81,181.14 -326.64,-124.72 -415.73,-484.01 -424.63,-540.44 -8.91,-56.42 11.89,-89.08 11.89,-89.08z"/>
   <rect class="fil11" x="2901.68" y="3190.14" width="2002.23" height="142.31"/>
   <rect class="fil11" x="2901.68" y="3510.32" width="2002.44" height="147.38"/>
   <path class="fil12" d="M2678.33 6302.71c218.96,-376.75 763.49,-1034.19 1381.71,-1211.39 146.67,-39.29 179.75,-41.17 179.75,-41.17 -38.25,432.73 -358.45,738.57 -649.31,951.58 -99.52,68.1 -503,259.94 -683.17,285.79 -111.73,16.04 -228.98,15.19 -228.98,15.19z"/>
   <rect class="fil13" x="4015.53" y="5123.46" width="4294.52" height="690.2" rx="113.58" ry="158.41"/>
   <path class="fil14" d="M10212.69 5242.74c-178.41,76.02 -147.99,351.58 -67.71,382.08 0,0 -5829.25,27.05 -5888.14,31.25 -115.25,-150.74 -59.01,-295.67 14.89,-357.47l5940.95 -55.86z"/>
   <path class="fil15" d="M3522.47 6717.93c-369.35,-154.89 -378.99,-733.86 -30.54,-850.01 167.96,-55.99 264.67,-40.71 661.68,-50.89 397.01,-10.17 6097.65,-61.08 6179.08,-35.63 62.6,1.45 91.64,45.37 88.47,84.8 -7.3,90.61 -160.07,76.27 -222.47,79.74l-6531.15 16.41 6.62 592.71c0,0 6536.08,-35.96 6610.48,-10.18 75.62,6.9 71.5,43.15 71.7,69.9 0.38,49.6 -28.03,70.94 -79.64,72.61l-6754.23 30.54z"/>
   <path class="fil14" d="M3691.26 5936.18l5935.7 0c116.14,0 211.15,95.01 211.15,211.15l0 180.34c0,116.13 -95.02,210.92 -211.15,211.15l-5933.25 12.25c-116.13,0.23 -213.61,-107.27 -213.61,-223.41l0 -180.34c0,-116.14 95.01,-211.15 211.15,-211.15z"/>
   <path class="fil16" d="M3516.73 6040.41l6122.41 -31.75c-76.44,0.39 -134.42,82.71 -157.58,183.42 -362.93,3.6 -1270.66,12.92 -1318.62,16.49l2.32 34.36c48.01,-3.57 943,-12.79 1309.84,-16.42 -17.94,123.34 15.72,262.55 128.4,311.8 352.36,0.89 598.66,2.98 681.13,6.72 -126.8,-329.24 -55.33,-496.07 75.93,-633.2 -47.06,8.51 -100.95,5.67 -132.23,7.49l-6586.87 10.37c-38.32,1.85 -115.66,47.8 -124.74,110.72z"/>
   <polygon class="fil17" points="5571.2,6406.27 8100.72,6397.67 7317.78,5881.45 5941.17,5907.26 "/>
   <path class="fil18" d="M6128.55 5980.02l604.17 160.49c0,0 -76.39,45.1 -419.38,101.74 -342.99,56.64 -554.02,177.26 -554.02,177.26l221.33 -439.49 147.9 0z"/>
   <path class="fil18" d="M7425.01 5857.3c34.61,18.88 396.66,156.8 478.39,245.44 81.72,88.65 103.75,261.18 -72.45,229.71 -176.21,-31.46 -572.71,-100.69 -572.71,-100.69l166.78 -374.46z"/>
   <path class="fil19" d="M8924.31 4081.45c-75.12,-340.95 -402.21,-616.38 -689.46,-788.75 312.73,69.5 588.42,272.34 689.46,584.67 0,-174.06 -180.14,-528.22 -347.49,-761.17 225.01,186.22 486.05,506.75 468.84,816.33 136.86,-321.63 115.83,-597.66 88.25,-970.78 126.13,322.89 144.89,654.25 22.06,981.81 49.77,-233.9 295.25,-501.28 656.38,-590.18 -312.91,167.63 -441.32,381.98 -568.12,706.02 92.5,-192.12 344.54,-331.34 628.79,-353.01 -254.16,123.17 -467.78,350.95 -512.96,529.51l-408.17 -5.52 -27.58 -148.93z"/>
   <rect class="fil0" x="8223.58" y="4182.48" width="1516.94" height="992.17"/>
   <rect class="fil0" x="8276.87" y="4030.78" width="1533.35" height="237.79"/>
   <path class="fil20" d="M7273.88 6163.92c0,0 267.56,70.99 371.4,80.43 103.84,9.44 210.83,0 210.83,0l-90.86 73.65c-147.62,-27.83 -382.6,-44.34 -522.74,-108.27l31.37 -45.81z"/>
   <path class="fil21" d="M7388.43 5815.01c0,0 446.17,164.37 636.64,227 190.48,62.62 323.54,46.97 435.73,193.08 112.2,146.11 88.71,271.36 70.45,323.54 -18.27,52.18 -70.45,104.37 -164.37,78.28 -93.93,-26.1 -206.13,-91.32 -279.19,-135.68 -73.05,-44.35 -276.58,-122.63 -352.24,-153.94 -75.67,-31.31 -157.97,-55.9 -157.97,-55.9 99,3.25 318.66,-43.38 220.6,-173.71 -42.35,-56.28 -404.43,-232.22 -404.43,-232.22l-5.22 -70.45z"/>
   <path class="fil22" d="M7446.55 5826.32l-199.15 440.28c0,0 -1890.38,-617.83 -2292.12,-818.7 -401.73,-200.87 -522.54,-271.64 -711.33,-519.9 -116.42,-219.05 55.88,-652.93 596.17,-569.36l1078.47 361.81 1380.37 154.6c0,0 1181.59,-460.12 1350.92,-519.02 169.32,-58.9 331.29,-103.06 474.85,-40.49 143.56,62.57 214.84,114.44 251.64,280.08 36.81,165.65 2.34,400.9 -273.73,592.31 -276.07,191.41 -1656.1,638.4 -1656.1,638.4z"/>
   <path class="fil23" d="M5429.02 4587.92c0,0 544.79,397.55 990.19,655.21 445.4,257.67 603.68,312.89 603.68,312.89 302.89,-204.35 695.11,-475.13 879.76,-677.3l-629.45 77.3 -923.93 36.81 -438.03 -231.91 -482.22 -173z"/>
   <path class="fil24" d="M5429.02 4587.92c442.42,305.41 882.87,577.22 1351.22,837.15l799.2 -566.8 -1230.16 134.56 -438.03 -231.91 -482.22 -173z"/>
   <path class="fil20" d="M6006.35 6251.16c282.46,-13.29 343.94,-81.17 579,-141.61l144.75 22.03c0,0 -166.77,72.37 -292.64,94.4 -125.88,22.03 -226.58,37.76 -302.09,56.64 -75.52,18.89 -129.01,-31.46 -129.01,-31.46z"/>
   <path class="fil25" d="M8125.62 6341.65c3.63,-36.39 -19.4,-55.19 -19.4,-55.19 0,0 29.83,20.88 58.17,-22.38 28.35,-43.26 34.44,-148.13 86.65,-142.59 52.21,5.56 175.14,103.3 224.36,225.03 49.23,121.74 23.97,228.2 -58.36,242.02 -119.4,10.88 -271.9,-64.69 -306.3,-182.86 -5.45,-18.71 12.68,-41.91 14.88,-64.04z"/>
   <g>
    <circle class="fil26" cx="9273.53" cy="866.69" r="577.54"/>
    <path class="fil27" d="M8819.57 1224.42c378.17,-174.25 621.06,-315.91 942.28,-664.52 54.8,88.31 86.48,192.47 86.48,304.05 0,318.97 -258.58,577.54 -577.55,577.54 -182.6,0 -345.38,-84.77 -451.22,-217.07z"/>
    <polygon class="fil28" points="9623.65,1514.56 9672.42,1482.24 9758.17,1594.68 9690.26,1638 "/>
    <polygon class="fil28" points="9826.21,1352.93 9859.8,1305.02 9980.7,1378.36 9933.31,1443.5 "/>
    <polygon class="fil28" points="9958.91,1137.96 9979.93,1083.35 10114.97,1125.29 10084.73,1199.95 "/>
    <polygon class="fil28" points="10017.64,884.41 10013.64,826.04 10153.78,807.07 10157.87,887.52 "/>
    <polygon class="fil28" points="9975.18,634.13 9951.39,580.67 10076.5,514.76 10107.96,588.91 "/>
    <polygon class="fil28" points="9852.97,412.4 9812.87,369.78 9909.24,266.29 9963.4,325.91 "/>
    <polygon class="fil28" points="9667.96,249.12 9617.48,219.53 9680.75,93.07 9749.52,135 "/>
    <polygon class="fil28" points="9437.43,152.7 9379.47,144.65 9389.62,3.61 9469.2,16.08 "/>
    <polygon class="fil28" points="9196.47,140.13 9138.49,148.02 9110.19,9.47 9190.18,0 "/>
    <polygon class="fil28" points="8954.42,200.68 8904.2,230.71 8823.75,114.42 8893.59,74.29 "/>
    <polygon class="fil28" points="8740.81,351.53 8700.92,394.34 8591.31,304.99 8647.25,247.03 "/>
    <polygon class="fil28" points="8593.71,565.86 8572.8,620.51 8437.67,578.82 8467.77,504.11 "/>
    <polygon class="fil28" points="8529.66,821.54 8528.53,880.04 8387.28,886.68 8390.24,806.18 "/>
    <polygon class="fil28" points="8563.44,1084.62 8582.32,1140 8451.79,1194.39 8427.13,1117.71 "/>
    <polygon class="fil28" points="8691.53,1324.39 8730.04,1368.45 8629.94,1468.34 8578.01,1406.77 "/>
    <polygon class="fil28" points="8891.78,1493.45 8943.24,1521.28 8884.36,1649.84 8814.19,1610.3 "/>
    <polygon class="fil28" points="9129.04,1587.8 9187.54,1589.27 9193.36,1730.56 9112.89,1727.14 "/>
    <polygon class="fil28" points="9385.47,1591.23 9442.7,1579.07 9481.16,1715.15 9402.09,1730.51 "/>
   </g>
   <path class="fil9" d="M455.42 1483.12c0,0 144,-64 448.01,-112 304.01,-48 496.01,96.01 496.01,96.01 0,0 240,-96.01 416.01,-96.01 176.01,0 272.01,16 272.01,16 0,0 -175.99,-496.01 480.02,-640.01 656.02,-144.01 752.02,544.01 752.02,544.01 0,0 112,-64.01 368.01,0 256.01,64 400.01,192.01 400.01,192.01 0,0 80,-96 192.01,-32 112,64 656.01,32 480.01,112 -176,80 -4720.13,64 -4720.13,64l416.01 -144z"/>
   <path class="fil0" d="M3401.57 1936.64l982.11 0 0 418.04 -982.11 0c-36.18,0 -65.78,-29.6 -65.78,-65.78l0 -286.49c0,-36.18 29.6,-65.78 65.78,-65.78z"/>
   <rect class="fil29" x="3450.22" y="2012.9" width="933.66" height="130.66"/>
   <polygon class="fil29" points="3453.42,2204.12 3437.48,2318.85 4380.8,2322.03 4382.5,2202.62 "/>
   <path class="fil0" d="M2734.11 2352.3l1884.77 0 0 319.64 -1910.35 0c-28.12,0 -51.14,-23.01 -51.14,-51.14l0 -191.78c0,-42.2 34.52,-76.71 76.71,-76.71z"/>
   <polygon class="fil11" points="4615.33,2440.46 3138.2,2437.16 4615.95,2527.78 "/>
   <path class="fil30" d="M3522.47 6717.93c-64.22,-26.93 -117.54,-66.71 -160.02,-114.62 55.5,16.29 131.03,30.81 231.4,36.19 259.35,13.89 6081.22,-15.81 6762.42,-19.33 -1.68,45.76 -29.87,65.62 -79.57,67.23l-6754.23 30.54z"/>
   <path class="fil21" d="M5854.78 5901.36c0,0 -9.44,34.61 -144.75,88.11 -135.31,53.49 -233.74,135.09 -296.68,245.23 -47.87,83.77 -159.34,489.93 0.88,475.37 34.61,-3.14 210.83,-116.42 273.76,-188.8 62.94,-72.38 295.79,-169.93 377.61,-198.25 81.82,-28.31 125.88,-50.35 125.88,-50.35 0,0 -129.01,18.89 -122.72,-116.42 6.29,-135.31 50.34,-204.54 50.34,-204.54l-264.33 -50.34z"/>
   <path class="fil23" d="M4213.87 4822.1c1060.63,601.14 1917.37,999.43 3119.26,1244.97l-113.15 266.98c-1035.41,-245.02 -2995.1,-875.56 -3006.1,-1511.95z"/>
   <path class="fil13" d="M10213.31 5119.29c75.27,2.38 100.59,23.41 98.07,70.55 -2.01,37.54 -26.66,54.89 -75.56,61.65 -81.57,11.25 -1549.83,16.87 -1549.83,16.87l264.4 -140.64 1262.92 -8.44z"/>
   <path class="fil31" d="M10253.04 5123.09c44.65,8.16 60.35,29.15 58.34,66.75 -2.01,37.54 -26.66,54.89 -75.56,61.65 -81.57,11.25 -1549.83,16.87 -1549.83,16.87l126.91 -67.5c814.35,-6.58 1417.84,-13.59 1433.84,-20 24.52,-9.81 18.69,-34.79 6.31,-57.78z"/>
   <path class="fil13" d="M10242.72 5619.46c75.27,2.38 100.59,23.4 98.07,70.55 -2.01,37.53 -26.66,54.89 -75.56,61.64 -81.57,11.26 -2260.75,36.23 -2260.75,36.23l230.03 -76.39 280.82 -93.26 1727.4 1.23z"/>
   <path class="fil31" d="M10340.77 5677.82c0.25,3.85 0.25,7.91 0.02,12.19 -2.01,37.53 -26.66,54.89 -75.56,61.64 -81.57,11.26 -2260.75,36.23 -2260.75,36.23l230.03 -76.39 8.48 -2.82 2097.78 -30.85z"/>
   <path class="fil30" d="M10413.53 5826.99c6.16,12.41 8.69,26.05 7.63,39.21 -7.3,90.61 -160.07,76.27 -222.47,79.74l-2408.32 1.25 52.66 -55.29 19.84 -26.46 2550.66 -38.45z"/>
   <path class="fil23" d="M7323.27 5762.91c0,0 1212.35,-381.08 1535.12,-598.77 181.28,-122.25 575.95,-416.94 473.61,-689.89 0,0 277.02,348.35 25.56,671.13 -386.57,435.37 -1494.63,844.07 -1494.63,844.07l-451.12 -154.39 19.42 -35.72 -107.97 -36.42z"/>
   <path class="fil32" d="M4841.2 3308.37c0,0 178.17,-433.55 326.64,-653.28 148.47,-219.73 142.52,-258.33 305.85,-359.29 163.33,-100.96 472.15,-181.14 472.15,-181.14 259.55,656.38 915.31,544.22 1032.68,199.65 29.69,-100.96 101.64,-217.47 101.64,-217.47 0,0 264.27,26.72 481.05,249.43 216.77,222.71 513.71,928.22 513.71,928.22 0,0 -253.8,184.05 -341.66,243.44 -95.01,59.39 -157.21,126 -157.21,126l-20.79 148.47 -1113.54 884.89 -359.3 62.36 -457.29 -356.34c0,0 35.63,-344.45 35.63,-478.08 0,-133.63 26.72,-83.14 -5.94,-163.32 -32.66,-80.17 -56.42,-32.66 -68.29,-142.53 -11.88,-109.87 -6.64,-300.01 -6.64,-300.01 -57.26,95.76 -114.57,217.08 -152.47,281.33 0,0 -253.65,-52.58 -411.02,-129.79 -157.38,-77.21 -175.2,-142.54 -175.2,-142.54z"/>
   <polygon class="fil4" points="7943.7,3365.17 8173.92,3770.75 7619.25,3992.61 7458.23,3702.76 "/>
   <path class="fil33" d="M5001.56 3406.36c0,0 305.85,26.73 433.53,-145.5 127.69,-172.23 178.17,-273.19 210.84,-445.42 32.66,-172.22 59.39,-386.02 59.39,-386.02 0,0 -11.88,742.35 100.96,959.12 112.84,216.77 198.95,394.93 451.35,442.45 252.4,47.51 391.96,71.27 391.96,71.27 0,0 -127.68,-23.76 -92.05,-148.47 35.63,-124.72 157.38,-133.63 249.43,-136.6 92.05,-2.97 130.65,-11.88 130.65,-11.88 0,0 -115.8,-56.43 -166.28,-118.78 -50.48,-62.36 -56.42,-86.11 -56.42,-86.11 0,0 442.45,299.91 647.34,175.19 204.89,-124.71 276.16,-430.58 187.08,-671.1 -89.09,-240.51 -178.17,-442.45 -178.17,-442.45 0,0 288.04,582.01 421.66,700.78 133.63,118.79 255.37,139.57 255.37,139.57l-472.14 326.64 -38.61 237.56 -1077.9 831.44 -397.91 80.17 -438.54 -451.94c0,0 31.73,-323.07 31.73,-427.01 0,-103.93 8.42,-144.42 -39.09,-209.75 -47.51,-65.33 -35.15,-119.86 -41.09,-205.98 -5.94,-86.12 0,-154.41 0,-154.41 0,0 -53.46,109.87 -86.12,169.25 -32.66,59.39 -47.51,89.09 -47.51,89.09l-439.47 -181.14z"/>
   <path class="fil10" d="M7577.43 3561.48c121.44,-48.57 415.63,-229.56 480.3,-325.23 0,0 30.89,37.81 28.07,71.59 -59.08,147.43 -382.85,321.17 -516.54,375.28l8.17 -121.63z"/>
   <path class="fil4" d="M4906.21 3388.55c0,0 -35.9,104.44 -127.29,329.64 -91.38,225.21 -124.02,336.17 -114.23,447.14 9.79,110.97 166.45,189.3 401.44,290.47 234.99,101.18 871.43,385.13 871.43,385.13l75.07 55.48 114.23 -192.56c0,0 35.91,16.33 -186.04,-146.87 -221.94,-163.19 -355.75,-290.47 -554.84,-417.76 -199.09,-127.29 -257.84,-143.61 -257.84,-143.61 0,0 140.34,-205.62 179.51,-293.75 39.16,-88.12 84.86,-166.45 84.86,-166.45l-486.3 -146.87z"/>
   <polygon class="fil5" points="4854.96,3519.51 5261.96,3786.73 5385.59,3568.48 4911.69,3370.03 "/>
   <path class="fil34" d="M6374.91 4589.62c-194.62,-36.21 -254.44,41.02 -372.6,159.18 -34.76,40.48 -90.26,109.33 34.21,184.77 75.07,29.38 171.93,99.92 171.93,99.92l166.45 -443.88z"/>
   <path class="fil35" d="M6623.72 3829.67c0,0 1908.87,-71.59 1964.54,-55.68 55.68,15.91 91.47,27.84 75.56,87.49 -15.91,59.65 -202.82,405.63 -202.82,445.41 0,39.77 -55.68,349.96 -55.68,349.96l-2052.04 -23.86 270.43 -803.32z"/>
   <polygon class="fil36" points="6349.32,4541.51 8445.1,4640.94 8266.14,4744.33 6269.78,4823.87 "/>
   <polygon class="fil37" points="6237.97,5066.46 8174.68,4959.08 8290,4728.43 6281.71,4819.89 6194.23,5018.73 "/>
   <path class="fil38" d="M6229.12 5085.59l419.75 -1214.92c0,0 29.68,-49.17 -47.29,-85.72 -32.52,5.91 -68,156.66 -115.29,283.77 -47.29,127.11 -328.11,951.83 -328.11,951.83l70.94 65.04z"/>
   <path class="fil39" d="M6633.77 3817.55l11.9 58.26 2007.37 -73.12c-7.75,-3.65 -3.4,-44.82 -62.08,-56.17 -70.94,-17.73 -1957.2,71.03 -1957.2,71.03z"/>
   <path class="fil40" d="M8304.27 3750.31c0,0 -8.91,-33.35 -50.29,-36.3 -41.38,-2.96 -975.49,35.47 -1120.33,35.47 -144.85,0 -539,35.97 -539,35.97l40.02 32.77 1669.58 -67.91z"/>
   <circle class="fil11" transform="matrix(0.674862 -0.674862 0.674862 0.674862 3882.57 2976.68)" r="165.68"/>
   <path class="fil0" d="M2635.39 3565.73c36.65,-76.98 12.15,-191.54 51.22,-285.76 -105.92,73.56 -80.82,211.77 -51.22,285.76z"/>
   <path class="fil0" d="M2524.86 3598.07c61.06,-182.04 -53.62,-342.39 -212.97,-479.86 142.19,206.31 126.41,306.74 212.97,479.86z"/>
   <path class="fil0" d="M2438.59 3654.69c25.15,-184.75 -256.69,-277.32 -355.85,-266.89 161.36,82.09 243.01,156.44 355.85,266.89z"/>
   <path class="fil0" d="M2392.76 3770.61c-23.48,-101.5 -208.75,-161.16 -293.84,-118.61 84.51,10.24 226.6,68.17 293.84,118.61z"/>
   <path class="fil41" d="M1365.65 2843.8c-300.87,631.81 -286.17,1589.92 133.93,2157.06 140.99,190.33 420.29,266.64 420.29,266.64 542.32,-900.03 -254.42,-2141.16 -554.22,-2423.7z"/>
   <path class="fil42" d="M1162.49 3699.62c-1.74,35.62 -2.76,71.34 -3.01,107.07l375.99 48.7 -18.38 -98.04 -354.6 -57.72z"/>
   <path class="fil43" d="M1189.41 3433.8c-8.86,57.13 -15.76,114.99 -20.72,173.24l225.85 79.84 -205.13 -253.08z"/>
   <path class="fil42" d="M1906.98 5235.14c345.1,-529.89 185.65,-1167.97 -62.07,-1666.24l-0.98 0.74c-31.31,-70.83 -94.3,-206.2 -170.2,-331.03 -109.11,-179.42 -295.81,-395.21 -295.81,-395.21 0,0 0,72.74 24.24,215.79 20.68,121.98 120.66,596.44 149.68,733.61l-13.18 10.08c0,0 4.03,44.33 48.36,225.7 36.27,148.38 245.15,927.84 319.95,1206.55z"/>
   <path class="fil41" d="M1956.66 3821.29c-24.79,-63.96 -51.77,-126.51 -80.26,-187.21 -69.39,45.02 -287.77,187.48 -328.27,223.3 6.41,32.07 17.08,81.12 34.75,154.14l373.78 -190.23z"/>
   <path class="fil44" d="M1347.79 2865.33c-2.23,-13.41 6.83,-26.1 20.24,-28.33 13.41,-2.23 26.1,6.83 28.33,20.24 66.96,400.31 136.16,786.79 221.31,1180.7 85.12,393.82 185.98,794.1 316.16,1221.49 3.94,12.98 -3.4,26.7 -16.38,30.64 -12.98,3.94 -26.7,-3.4 -30.64,-16.38 -130.99,-430.05 -232.17,-831.41 -317.32,-1225.34 -85.13,-393.83 -154.5,-781.3 -221.7,-1183.02z"/>
   <path class="fil45" d="M2689.8 6277.71c-448.11,-691.17 176.05,-1473.76 819.11,-1747.66 289.36,-123.25 381.2,-143.9 381.2,-143.9 -26.02,680.22 -735.38,1483.18 -1200.31,1891.56z"/>
   <path class="fil46" d="M2689.8 6277.71c-22.1,-34.1 -41.51,-68.43 -58.52,-102.9l23.48 -271.93c0,0 74.6,-109.23 173.17,-253.1 98.58,-143.86 255.77,-330.36 255.77,-330.36l-96.48 -444.21c26.62,-25.12 53.97,-49.44 81.98,-72.88l65.12 455.81 311.71 -357 -99.83 -290.62c29.56,-16.64 59.35,-32.27 89.27,-46.85l69.17 278.85 255.77 -269.08 -205.15 293.06 226.5 -14.61c-9.35,23.37 -19.22,46.73 -29.58,70.09l-268.86 5.8 -455.58 535.5 432.49 -37.51c-18.35,26.03 -37.03,51.85 -55.99,77.45l-435.12 32 -274.41 410.28 4.27 324.09 -9.18 8.11z"/>
   <path class="fil47" d="M2553.22 6828.32c-5.32,12.5 -19.78,18.33 -32.28,13 -12.5,-5.32 -18.33,-19.77 -13.01,-32.28l233.05 -547.79c5.33,-12.5 19.78,-18.33 32.28,-13.01 12.5,5.32 18.33,19.78 13.01,32.28l-233.06 547.8z"/>
   <path class="fil48" d="M2217.49 6249.1c-540.82,-43.85 -517.55,-814.41 -416.87,-1185.12 131.02,-482.37 285.86,-756.32 476.43,-1018.35 190.57,-262.04 285.85,-351.36 285.85,-351.36 0,0 148.88,172.69 226.3,750.36 77.42,577.66 35.73,893.3 -59.55,1191.06 -61.25,191.41 -165.94,472.23 -512.16,613.4z"/>
   <path class="fil49" d="M2398.39 4640.07c-9.73,-190.49 89.07,-801.09 152.72,-892.81 5.2,291.13 -51.84,621.06 -105.73,908.47 0,0 113.55,-43.07 172.29,-39.16 58.74,3.91 43.08,43.07 43.08,43.07 0,0 -231.04,54.83 -231.04,78.32 0,23.5 -97.89,606.95 -97.89,606.95 0,0 325.01,-148.81 356.34,-117.48 31.32,31.33 -50.9,74.4 -50.9,74.4l-289.78 129.23c-24.84,240.14 -46.87,602.78 -121.39,826.23 -19.2,-38.41 16.49,-732.69 43.07,-830.15l-321.1 -348.51c0,0 -27.41,-50.9 43.08,-19.58 70.48,31.33 289.77,262.36 289.77,262.36l78.31 -587.37c0,0 -191.87,-231.04 -215.36,-278.02 -23.5,-46.99 -31.33,-93.98 11.74,-58.74 43.08,35.24 242.78,242.78 242.78,242.78z"/>
   <path class="fil50" d="M1993.09 6700.96c4.41,12.83 -2.4,26.81 -15.22,31.22 -12.83,4.41 -26.81,-2.4 -31.22,-15.22l-491.36 -1416.55c-4.41,-12.82 2.41,-26.81 15.23,-31.22 12.82,-4.42 26.81,2.4 31.22,15.22l491.36 1416.54z"/>
   <path class="fil51" d="M1583.94 5342.89c0,0 262.04,-303.73 -59.56,-815.9 -250.54,-403.31 -850.46,-805.74 -1310.21,-940.97 73.71,593.26 612.44,2346.04 1369.77,1756.87z"/>
   <path class="fil52" d="M1277.28 4227.53c-15.55,-15.2 -31.49,-30.28 -47.7,-45.25l-196.95 419.74 -250.61 -344.59 157.79 -306.99c-23.92,-16.71 -48.06,-33.06 -72.41,-49.05l-155.87 297.3c-48.5,-111.55 -267.33,-389 -372,-438.58 55.79,153.42 216.16,334.84 328.93,454.24 -53.95,2.69 -185.06,32.81 -287.87,67.46 6.98,21.44 14.21,42.97 21.58,64.53 88.11,-36.57 182.73,-53.26 301.53,-69.35l270.19 348.51c-118.38,16.47 -301.38,65.44 -413.86,117.52 10.31,22.19 20.85,44.13 31.56,65.84 133.58,-64.86 295.67,-91.19 437.12,-105.06 188.97,204.29 338.35,449.32 498.93,678.49 15.59,-9.91 31.29,-20.75 47.07,-32.66 -153.3,-240.29 -309.37,-469.88 -479.42,-700.66l182 -421.48z"/>
   <path class="fil53" d="M1641.06 5242.51c53.33,-128.7 96.27,-376.39 -116.67,-715.53 -247.42,-398.28 -835.56,-795.68 -1292.96,-935.76 31.43,43.59 76.3,104.33 135.5,149.31 870.88,661.86 728.54,573.71 1274.13,1501.97z"/>
   <path class="fil50" d="M2486.8 6722.86c-6.55,11.92 -21.52,16.27 -33.44,9.73 -11.92,-6.54 -16.27,-21.52 -9.73,-33.44l256.75 -464.8c6.55,-11.92 21.52,-16.27 33.44,-9.73 11.92,6.54 16.27,21.51 9.73,33.44l-256.75 464.8z"/>
   <path class="fil54" d="M2224.63 6741.4c-0.79,13.56 -12.45,23.92 -26.02,23.12 -13.56,-0.8 -23.92,-12.45 -23.12,-26.02l30.27 -512.05c0.79,-13.56 12.45,-23.92 26.01,-23.12 13.56,0.8 23.92,12.45 23.12,26.02l-30.27 512.05z"/>
   <path class="fil55" d="M-0 5385.39c0,0 327.57,-35.41 491.35,-13.28 163.79,22.14 181.49,35.41 181.49,35.41 0,0 -0.01,115.09 57.55,199.2 57.55,84.11 79.68,88.53 79.68,88.53l35.41 -230.19c0,0 349.7,123.95 522.34,407.26 172.65,283.31 154.94,385.12 154.94,385.12 0,0 -172.63,128.37 -540.05,48.69 -367.42,-79.68 -686.14,-367.41 -827.79,-597.6 -141.65,-230.19 -154.93,-323.15 -154.93,-323.15z"/>
   <path class="fil50" d="M1898.88 6658.14c6.07,12.13 1.14,26.89 -10.99,32.96 -12.13,6.07 -26.89,1.14 -32.95,-10.99 -117.7,-235.4 -416.83,-470.01 -748.3,-673.39 -333.79,-204.8 -699.86,-377.46 -948.45,-488.22 -12.39,-5.53 -17.96,-20.07 -12.43,-32.46 5.53,-12.4 20.08,-17.97 32.47,-12.43 250.01,111.38 618.2,285.05 954.04,491.11 338.15,207.49 644.09,448.36 766.61,693.43z"/>
   <path class="fil56" d="M1206.5 6934.21c40.5,334.86 112.04,915.23 227.34,1234.29 39.45,109.18 110.36,197.46 274.4,231.58l998.57 9.84c168.36,-14.45 258.55,-131.84 290.22,-290.22 0,0 93.46,-560.78 127.89,-772.29 34.44,-211.52 49.19,-364 49.19,-364l-1967.6 -49.19z"/>
   <path class="fil57" d="M1255.34 7314.53c41.94,299.26 100.09,637.01 178.5,853.97 10.52,29.11 23.28,56.74 39.45,82.25 522.95,67.37 1284.69,-331.65 1233.52,-923.02l-1451.46 -13.2z"/>
   <rect class="fil58" x="985.13" y="6614.47" width="2400.48" height="477.14" rx="255.79" ry="238.58"/>
   <path class="fil59" d="M1391.24 6614.47l1755.82 0c6.47,0 12.86,0.28 19.2,0.79 80.77,94.28 26.41,278.64 -144.65,255l-1815.12 -9.84c58.86,-95.14 118.5,-170.93 184.75,-245.95z"/>
   <rect class="fil60" x="3024.27" y="7564.49" width="6795.46" height="941.36" rx="411.84" ry="411.84"/>
   <path class="fil14" d="M9977.53 7725.78c-250.22,202.11 -96.29,549.51 8.42,668.58l-3830.38 -33.72c-250.83,-236.06 -170.43,-577.12 209.93,-643.27l3612.04 8.41z"/>
   <path class="fil61" d="M9959.17 7741.61c-31.69,28.87 -55.95,60.32 -73.9,93.39l-3746.23 -8.13c50.74,-52.65 125.53,-91.93 226.46,-109.49l3596.98 8.37 -3.31 15.86z"/>
   <path class="fil62" d="M5755.78 7540.77l4129.24 21.02c0,0 105.13,-16.82 142.97,58.87 37.85,75.69 -29.44,117.74 -29.44,117.74l-3679.31 8.4c0,0 -227.07,67.29 -256.51,214.46 -29.44,147.17 24.31,283.1 70.57,325.16 46.26,42.04 135.48,53.28 135.48,53.28l3679.32 29.44c94.04,-3.11 195.92,77.37 67.28,138.76 -79.89,8.42 -4301.65,-8.4 -4301.65,-8.4 -142.92,-251.85 -217.93,-673.67 42.04,-958.72z"/>
   <path class="fil63" d="M3024.27 8057.13c408.66,14.53 1848.58,70.09 2238.54,70.09l328.06 0c17.56,138.5 64.56,269.53 122.87,372.27l278.98 1.08 4.29 5.29 -2560.89 0c-226.52,0 -411.84,-185.33 -411.84,-411.84l0 -36.88z"/>
   <path class="fil64" d="M3595.36 7578.93c4.74,-12.72 18.89,-19.19 31.61,-14.45 12.72,4.74 19.19,18.89 14.45,31.61 -73.14,196.55 -94.92,361.62 -90.59,504.87 4.32,143.01 34.95,265.32 66.48,375.55 3.72,13.09 -3.87,26.73 -16.97,30.45 -13.09,3.72 -26.72,-3.87 -30.45,-16.97 -32.31,-112.95 -63.68,-238.58 -68.19,-387.68 -4.5,-148.85 18.02,-320.08 93.66,-523.38z"/>
   <path class="fil64" d="M4110 7552.68c3.67,-13.09 17.27,-20.73 30.36,-17.06 13.09,3.67 20.73,17.27 17.05,30.36 -45.51,160.62 -73.03,338.28 -73.59,504.71 -0.51,148.86 20.44,288.54 69.22,398.44 5.48,12.39 -0.13,26.9 -12.52,32.38 -12.39,5.48 -26.9,-0.13 -32.38,-12.53 -51.76,-116.6 -73.98,-263.09 -73.46,-418.29 0.58,-171.33 28.75,-353.63 75.32,-518.01z"/>
   <path class="fil64" d="M4667.75 7558.84c6.33,-12.02 21.22,-16.64 33.24,-10.31 12.03,6.33 16.65,21.22 10.32,33.24 -72.96,138.31 -106.67,311.81 -106.48,473.59 0.2,169.44 37.32,324.86 105.14,411.7 8.35,10.68 6.45,26.14 -4.24,34.49 -10.69,8.36 -26.14,6.46 -34.49,-4.23 -74.54,-95.43 -115.35,-262.16 -115.55,-441.96 -0.2,-169.14 35.26,-350.97 112.05,-496.52z"/>
   <path class="fil64" d="M5179.78 7554.99c6.44,-11.97 21.37,-16.46 33.34,-10.02 11.97,6.43 16.46,21.37 10.03,33.34 -57.47,107.08 -99.19,287.11 -94.52,472.01 3.72,147.76 37.23,298.02 116.29,415.23 7.61,11.28 4.63,26.6 -6.64,34.21 -11.28,7.61 -26.6,4.63 -34.21,-6.64 -84.76,-125.66 -120.64,-285.28 -124.58,-441.64 -4.88,-193.46 39.38,-382.97 100.3,-496.48z"/>
   <path class="fil65" d="M3907.08 7568.64c-228.51,-48.08 -305.88,-748.38 -60.34,-850.68l5864.29 -30.17c163.81,3.94 98.65,174.66 24.13,156.86 0,0 -4307.72,-42.22 -4386.15,-6.03 -78.43,36.19 -18.1,488.69 -18.1,488.69 0,0 4187.05,36.21 4301.68,42.24 292.39,15.38 166.81,203.87 96.54,193.06l-5822.06 6.03z"/>
   <path class="fil31" d="M3907.08 7568.64c-51.85,-10.91 -95.88,-55.46 -130.15,-118.9l6037.01 0c17.62,55.98 -43.26,119.27 -84.81,112.87l-5822.06 6.03z"/>
   <rect class="fil14" x="5239.38" y="6818.06" width="3427" height="555.08" rx="141" ry="150.84"/>
   <path class="fil16" d="M5242.36 6957.9c15.65,-41.73 40.56,-58.17 218.19,-61.61 257.86,-7.93 2111.48,13.15 2111.48,13.15l-134.14 141.92 -1120.94 0 0 32.89 1089.85 0 -108.5 114.8 -1017.16 -2.2 0 32.89 555.23 0 -41.89 44.68 -1529.39 14.94c0,0 -6.25,52.3 92.81,75.72 202.33,55.54 4304.8,0.58 4304.8,0.58 -123.83,-80.58 -65.81,-490.62 71.41,-539.53 0,0 -4271.16,-40.3 -4354.46,-4.59 -145.91,-3.43 -137.29,136.35 -137.29,136.35z"/>
   <path class="fil66" d="M4270.8 7527.84c11.17,7.72 13.98,23.04 6.27,34.21 -10.84,11.46 -32.52,8.72 -46.1,-2.9 -82.43,-70.3 -116.81,-254.16 -117.14,-438.47 -0.34,-182.49 32.53,-367.98 84.85,-443.42 2.81,-4.05 5.9,-8.05 9.22,-11.95 8.77,-10.33 24.27,-11.57 34.59,-2.8 10.32,8.77 11.57,24.28 2.79,34.59 -1.87,2.21 -3.93,4.91 -6.14,8.1 -46.99,67.77 -76.49,241.77 -76.18,415.48 0.32,171.91 29.66,341.08 100,401.08 2.65,2.26 5.27,4.31 7.84,6.08z"/>
   <path class="fil66" d="M4885.53 7563.24c-138.85,-74.27 -192.58,-234.46 -199.08,-405.22 -6.33,-166.56 32.42,-344.07 80.13,-458.57 7.52,-18.05 15.45,-34.88 23.63,-50.17 6.38,-11.97 21.27,-16.5 33.24,-10.12 11.97,6.38 16.5,21.27 10.12,33.24 -7.11,13.3 -14.33,28.71 -21.51,45.94 -45.53,109.29 -82.52,278.8 -76.47,437.94 5.9,154.92 52.68,301.93 173.07,366.32 83.84,42.44 16.45,56.86 -23.13,40.63z"/>
   <path class="fil67" d="M3907.08 7568.64c-147.36,-40.16 -172.48,-222.41 -208.07,-345.38l1043.66 19.13c31.86,210.97 167.83,281.88 240.83,325.97l-1076.42 0.28z"/>
   <path class="fil25" d="M5514.94 6216.03c41.55,-56.58 123.02,-175.78 196.75,-155.35 66.98,18.56 21.8,156.47 42.46,156.93l69.17 1.56 -3.15 25.18 -47.2 0 31.47 81.81 -15.74 75.52 -44.06 12.59 34.61 -62.94 -56.64 31.47 9.44 -37.76 34.61 -25.18 -18.88 -56.64c0,0 -44.06,-44.06 -44.06,6.29 0,50.35 1.62,138.52 -88.11,207.69 -89.73,69.17 -199.31,97.65 -207.69,9.44 -7.78,-81.85 69.44,-215.86 106.99,-270.62z"/>
   <rect class="fil68" x="9415.68" y="5390.63" width="194.71" height="106.21"/>
   <ellipse class="fil68" cx="4476.17" cy="5486.65" rx="58.45" ry="53.47"/>
   <ellipse class="fil68" cx="4207.45" cy="6273.12" rx="70.88" ry="67.02"/>
   <ellipse class="fil68" cx="5633.84" cy="7099.15" rx="74.83" ry="70.55"/>
   <path class="fil10" d="M4814.39 3355.12l41.45 -84.64c0,0 119.17,134.73 326.44,191.72 207.27,56.99 289.62,62.26 289.62,62.26l-49.78 100.1c0,0 -148.31,13.81 -346.94,-93.28 -198.62,-107.08 -260.8,-176.17 -260.8,-176.17z"/>
   <path class="fil61" d="M9968.93 8367.91c-13.28,-11.41 -6.31,-23.9 -21.24,-39.33l-3782.43 -5.16c50.74,16.2 99.31,45.69 200.23,51.09l3603.43 -6.61z"/>
   <path class="fil61" d="M10023.52 8507.56c6.81,-6.94 18.64,-13.08 25.15,-19.08l-4345.93 -3.02c5.62,14.69 4.72,21.88 73.56,21.1l4247.22 0.99z"/>
   <path class="fil34" d="M8361.61 4447.85c0,0 50.18,10.66 60.83,-10.64 10.66,-21.29 6.09,-47.15 19.77,-98.85 40.71,-113.11 80.98,15.13 63.88,48.66 -9.13,33.46 -27.38,42.6 -6.09,80.61 36.86,65.82 18.33,91.82 1.52,150.56 14.24,39.16 15.18,53.57 -12.16,83.65 0,0 36.5,27.38 -15.21,50.19 -51.71,22.81 -176.41,41.06 -238.77,1.52 -62.36,-39.54 -57.79,-65.4 -57.79,-65.4 -28.18,-19.21 -68.59,-78.69 -9.13,-83.64 -129.17,-34.28 -7.44,-110.07 51.71,-111.02 0,0 -42.59,-25.86 -3.05,-42.59 39.54,-16.73 144.48,-3.04 144.48,-3.04z"/>
  </g>
 </g>
</svg>
