<svg width="224" height="404" viewBox="0 0 224 404" fill="none" xmlns="http://www.w3.org/2000/svg">
<g clip-path="url(#clip0_37831_395)">
<path fill-rule="evenodd" clip-rule="evenodd" d="M65.7978 8.95008C74.3021 0.00918243 81.7881 -0.509183 89.6994 9.39299C89.6994 9.39299 97.2241 7.6198 110.946 9.39299C124.667 11.1662 143.7 15.1544 129.536 16.0408C115.372 16.9271 1.61715 21.3598 0.289141 18.6998C-1.03887 16.0408 2.05896 13.8247 12.682 11.1657C23.3051 8.50666 28.6166 12.4954 28.6166 12.4954C33.2066 -5.88716 61.4318 -1.25081 65.7973 8.94957L65.7978 8.95008Z" fill="#E7F0FA"/>
<path fill-rule="evenodd" clip-rule="evenodd" d="M150.638 296.277L191.061 297.381L175.994 358.465L143.288 357.361L150.638 296.277Z" fill="#C94A52"/>
<path d="M192.507 289.652H149.058C147.864 289.652 146.896 290.622 146.896 291.817V306.254C146.896 307.45 147.864 308.419 149.058 308.419H192.507C193.701 308.419 194.669 307.45 194.669 306.254V291.817C194.669 290.622 193.701 289.652 192.507 289.652Z" fill="#EB5A65"/>
<path fill-rule="evenodd" clip-rule="evenodd" d="M132.531 243.695C144.776 239.341 171.524 233.16 188.614 234.335L195.068 245.032L198.406 234.558C202.031 234.299 223.518 235.118 224 236.563C203.666 272.064 163.782 287.213 127.656 300.264L132.531 243.694V243.695Z" fill="#9ED07B"/>
<path fill-rule="evenodd" clip-rule="evenodd" d="M129.041 302.765C157.989 293.394 213.517 266.624 223.777 236.562C209.143 265.617 149.299 285.602 127.404 292.564L129.041 302.765Z" fill="#5FA157"/>
<path fill-rule="evenodd" clip-rule="evenodd" d="M149.89 263.75C154.341 261.967 223.555 236.562 223.555 236.562L145.638 270.048L149.89 263.75Z" fill="#5FA157"/>
<path fill-rule="evenodd" clip-rule="evenodd" d="M111.612 239.696C115.773 223.515 128.691 201.069 136.9 192.134L146.949 199.72L148.34 197.243L142.31 186.407C147.675 179.976 159.906 167.749 174.002 160.711L129.141 268.454L111.611 239.697L111.612 239.696Z" fill="#8DC270"/>
<path fill-rule="evenodd" clip-rule="evenodd" d="M119.417 257.467C131.561 227.073 148.108 192.822 174.466 160.09C177.399 169.889 177.729 185.815 175.858 201.73L166.273 202.504L163.645 207.458L174.93 208.387C171.557 230.465 138.593 280.758 127.405 294.518L119.418 257.466L119.417 257.467Z" fill="#5FA157"/>
<path d="M124.598 267.375C134.233 242.776 159.379 186.659 173.903 161.26" stroke="#0C7D2C" stroke-width="2.48538" stroke-miterlimit="22.9256" stroke-linecap="round"/>
<path fill-rule="evenodd" clip-rule="evenodd" d="M22.909 368.725L212.939 369.455C212.939 369.455 217.491 369.157 219.376 370.929C220.101 372.749 218.82 373.59 216.09 373.594L86.7764 375.819C67.041 376.652 64.4856 393.774 83.9526 396.717L217.128 398.802C221.456 398.694 224.629 400.459 218.795 403.193C216.136 404.438 21.2021 403.871 21.2021 403.871C14.6245 395.118 10.9445 378.631 22.9085 368.725H22.909Z" fill="#27479B"/>
<path fill-rule="evenodd" clip-rule="evenodd" d="M216.897 373.346C210.183 379.076 210.261 395.566 216.183 398.936L69.569 400.26C69.569 400.26 62.9666 396.605 64.0995 386.011C65.2329 375.417 69.4807 373.396 69.4807 373.396L216.897 373.346Z" fill="#E6E6E6"/>
<path fill-rule="evenodd" clip-rule="evenodd" d="M216.008 374.208C210.362 380.401 210.522 394.898 215.733 398.643L215.73 398.913L209.997 398.991L152.124 399.514L143.536 386.696L75.3181 387.071L72.437 385.181C73.4368 385.181 144.583 384.894 144.583 384.894L155.869 373.594H216.014L216.007 374.208H216.008Z" fill="#D1CAD7"/>
<path fill-rule="evenodd" clip-rule="evenodd" d="M34.7387 402.083C29.3632 391.54 30.1869 379.096 38.6391 368.785L44.4942 368.808C36.8043 377.963 36.7454 387.643 42.1674 402.102L34.7392 402.083H34.7387Z" fill="#5698EC"/>
<path fill-rule="evenodd" clip-rule="evenodd" d="M22.909 368.725L32.2149 368.761C24.9307 377.083 21.5128 387.831 27.9181 402.064L20.974 402.045C14.3974 393.292 10.9445 378.632 22.909 368.725V368.725Z" fill="#4848C7"/>
<path fill-rule="evenodd" clip-rule="evenodd" d="M93.0928 124.9C93.4469 124.68 93.7943 124.449 94.1334 124.206C94.2815 124.113 94.4338 124.017 94.5938 123.919C99.0052 121.209 101.072 115.28 101.072 115.28H101.045C101.895 113.075 102.362 110.679 102.362 108.173C102.362 97.3123 93.6085 88.5078 82.8104 88.5078C72.0129 88.5078 63.2588 97.3123 63.2588 108.173C63.2588 110.63 63.7083 112.982 64.5269 115.151L64.4252 115.15C64.4252 115.15 66.1502 120.802 70.5616 123.512L70.6271 123.553C71.2893 124.084 71.9856 124.573 72.7133 125.016C74.9848 126.896 75.0328 128.39 75.2739 131.041C75.5742 134.354 75.4741 136.362 75.4741 136.362L89.7426 136.477C89.7426 136.477 89.6425 134.354 89.9429 131.041C90.2046 128.158 90.1917 126.952 93.0923 124.9H93.0928Z" fill="#E9EC56" stroke="#5699EC" stroke-width="0.287748" stroke-miterlimit="22.9256"/>
<path d="M89.0675 134.514H76.5533C75.2928 134.514 74.271 135.395 74.271 136.482V137.475C74.271 138.562 75.2928 139.443 76.5533 139.443H89.0675C90.328 139.443 91.3498 138.562 91.3498 137.475V136.482C91.3498 135.395 90.328 134.514 89.0675 134.514Z" fill="#808080"/>
<path fill-rule="evenodd" clip-rule="evenodd" d="M82.7366 142.599L78.6824 142.543C78.6591 144.548 80.4248 146.205 82.6437 146.262C84.8827 146.319 86.7387 144.725 86.7908 142.702C86.7934 142.591 86.7903 142.48 86.782 142.369L82.7366 142.6V142.599Z" fill="#4D4D4D"/>
<path d="M87.3101 139.305H78.0878C77.1589 139.305 76.4058 139.952 76.4058 140.751V141.481C76.4058 142.28 77.1589 142.928 78.0878 142.928H87.3101C88.2391 142.928 88.9922 142.28 88.9922 141.481V140.751C88.9922 139.952 88.2391 139.305 87.3101 139.305Z" fill="#CCCCCC"/>
<path fill-rule="evenodd" clip-rule="evenodd" d="M82.4433 94.4416C78.9248 90.8001 74.5522 94.7269 75.6969 97.85C69.7433 97.5384 70.1402 102.673 71.9287 104.362C68.23 105.652 68.4602 110.256 71.5028 111.726C68.2657 117.572 74.1176 119.182 75.2711 118.117C74.9449 123.854 80.6797 124.129 82.4428 121.647V94.4421L82.4433 94.4416Z" fill="white" stroke="#9999FF" stroke-width="1.09313" stroke-miterlimit="22.9256" stroke-linejoin="round"/>
<path d="M77.8246 97.9102C80.9973 98.7123 79.0747 101.8 77.4597 101.5" stroke="#6666FF" stroke-width="1.09313" stroke-miterlimit="22.9256" stroke-linecap="round"/>
<path d="M75.3931 105.701C75.3926 107.843 78.3361 110.272 79.9516 109.718" stroke="#6666FF" stroke-width="1.09313" stroke-miterlimit="22.9256" stroke-linecap="round"/>
<path d="M77.7032 114.83C80.6482 115.324 79.2253 118.73 77.521 118.238" stroke="#6666FF" stroke-width="1.09313" stroke-miterlimit="22.9256" stroke-linecap="round"/>
<path fill-rule="evenodd" clip-rule="evenodd" d="M82.4434 94.4416C85.9624 90.8001 90.335 94.7269 89.1903 97.85C95.1439 97.5384 94.747 102.673 92.9585 104.362C96.6572 105.652 96.4264 110.256 93.3838 111.726C96.6215 117.572 90.7696 119.182 89.6156 118.117C89.9417 123.854 84.207 124.129 82.4434 121.647V94.4421V94.4416Z" fill="white" stroke="#5699EC" stroke-width="1.09365" stroke-miterlimit="22.9256" stroke-linejoin="round"/>
<path d="M87.0629 97.9102C83.8902 98.7123 85.8128 101.8 87.4278 101.5" stroke="#6666FF" stroke-width="1.09313" stroke-miterlimit="22.9256" stroke-linecap="round"/>
<path d="M89.4943 105.701C89.4943 107.843 86.5513 110.272 84.9358 109.718" stroke="#6666FF" stroke-width="1.09313" stroke-miterlimit="22.9256" stroke-linecap="round"/>
<path d="M87.1846 114.83C84.2395 115.324 85.662 118.73 87.3668 118.238" stroke="#6666FF" stroke-width="1.09313" stroke-miterlimit="22.9256" stroke-linecap="round"/>
<path d="M103.076 121.111L111.541 126.029" stroke="#FF6600" stroke-width="2.18627" stroke-miterlimit="22.9256" stroke-linejoin="round"/>
<path d="M105.584 109.182L116.034 109.078" stroke="#FF6600" stroke-width="2.18627" stroke-miterlimit="22.9256" stroke-linejoin="round"/>
<path d="M103.18 97.0439L111.959 92.0215" stroke="#FF6600" stroke-width="2.18627" stroke-miterlimit="22.9256" stroke-linejoin="round"/>
<path d="M62.0055 120.902L53.1223 126.135" stroke="#FF6600" stroke-width="2.18627" stroke-miterlimit="22.9256" stroke-linejoin="round"/>
<path d="M58.7658 109.182L48.5247 109.286" stroke="#FF6600" stroke-width="2.18627" stroke-miterlimit="22.9256" stroke-linejoin="round"/>
<path d="M62.3194 97.5657L52.7043 92.334" stroke="#FF6600" stroke-width="2.18627" stroke-miterlimit="22.9256" stroke-linejoin="round"/>
<path d="M94.1328 88.6065C94.443 88.1393 99.337 79.5059 99.337 79.5059" stroke="#FF6600" stroke-width="2.18627" stroke-miterlimit="22.9256" stroke-linejoin="round"/>
<path d="M82.1699 85.7291C82.6359 85.0294 82.4029 74.8398 82.4029 74.8398" stroke="#FF6600" stroke-width="2.18627" stroke-miterlimit="22.9256" stroke-linejoin="round"/>
<path d="M70.751 88.3734L65.2361 79.5059" stroke="#FF6600" stroke-width="2.18627" stroke-miterlimit="22.9256" stroke-linejoin="round"/>
<path d="M200.637 331.139H30.9571C21.8209 331.139 14.4146 338.555 14.4146 347.703V353.382C14.4146 362.531 21.8209 369.947 30.9571 369.947H200.637C209.773 369.947 217.18 362.531 217.18 353.382V347.703C217.18 338.555 209.773 331.139 200.637 331.139Z" fill="#EBB84C"/>
<path fill-rule="evenodd" clip-rule="evenodd" d="M33.4992 336.645H193.6C199.757 336.645 204.795 341.689 204.795 347.855V362.909H33.4992C27.3407 362.909 22.3032 357.865 22.3032 351.699V347.855C22.3032 341.689 27.3407 336.645 33.4992 336.645Z" fill="#F5CB5E"/>
<path fill-rule="evenodd" clip-rule="evenodd" d="M33.4987 336.645H112.252C119.623 349.646 108.572 359.734 98.1583 362.909H33.4987C27.3412 362.909 22.3032 357.865 22.3032 351.699V347.855C22.3032 341.689 27.3407 336.645 33.4987 336.645Z" fill="white"/>
<path fill-rule="evenodd" clip-rule="evenodd" d="M67.3015 323.223C68.197 325.017 69.6463 327.605 68.1268 328.365C62.7374 329.265 55.7293 327.535 56.4782 329.484C55.0212 329.849 54.8973 331.295 57.8352 331.568C57.0253 331.604 55.7938 331.697 55.3851 332.245C54.7636 333.078 55.2726 333.526 56.0937 333.664C60.2858 334.713 75.475 334.814 75.475 334.814C75.475 334.814 75.2877 336.771 76.8841 336.213C77.617 335.558 77.6268 334.486 77.857 333.685C78.4325 334.694 78.2317 336.082 79.8033 336.237C80.991 335.816 81.087 333.316 81.087 333.316C81.9081 337.732 85.2078 338.077 84.0196 331.085L91.4716 329.425C91.4716 329.425 90.095 333.765 90.8243 334.569C91.5531 335.372 93.4912 333.576 93.4912 333.576C93.4912 333.576 92.5431 336.205 94.4388 335.913C96.3351 335.62 96.4079 334.453 96.4079 334.453C96.4079 334.453 96.2623 337.3 97.5743 335.621C98.8868 333.942 99.3462 333.11 99.3462 333.11C99.3462 333.11 103.818 334.198 107.61 334.636C134.787 336.833 133.292 333.303 145.386 334.201C145.386 334.201 147.111 342.276 129.367 348.043C103.828 356.342 94.1364 357.575 95.0189 366.849C95.901 376.124 110.583 381.346 129.548 368.538C148.514 355.731 157.501 345.504 158.824 315.031C161.52 275.335 157.011 256.883 142.015 229.502C127.019 202.12 125.727 201.817 121.316 189.451C116.906 177.085 114.257 165.464 114.257 163.398L110.455 177.389C99.4551 178.236 83.8158 178.58 73.0182 177.475L65.4621 165.611C65.4621 165.611 64.7384 174.975 61.9683 183.325C59.5828 190.519 57.2726 195.594 60.1753 209.628C66.6538 223.523 68.6512 233.525 69.2195 244.514C69.5127 258.807 69.09 268.39 69.09 268.39C69.09 268.39 66.2203 267.447 63.7036 271.015C57.3056 282.081 57.7376 307.666 67.3015 323.224V323.223Z" fill="#BF4F04"/>
<path fill-rule="evenodd" clip-rule="evenodd" d="M64.5367 322.3C65.4322 324.093 66.8815 326.681 65.362 327.441C59.972 328.34 57.3784 326.871 58.1268 328.82C56.6698 329.185 56.5459 330.631 59.4837 330.904C58.6739 330.94 57.4419 331.032 57.0331 331.581C56.4122 332.413 56.9211 332.862 57.7418 332.999C61.9343 334.049 74.8041 333.576 74.8041 333.576C74.8041 333.576 74.6168 335.533 76.2132 334.974C76.9461 334.32 76.9559 333.248 77.1856 332.447C77.7616 333.455 77.5608 334.844 79.1319 334.999C80.3195 334.578 80.415 332.182 80.415 332.182C80.415 332.182 81.454 336.715 83.0581 335.694C83.7559 335.249 82.9843 332.729 82.8434 331.692C82.6597 330.345 84.6422 329.218 84.6422 329.218L92.6417 330.121C92.6417 330.121 90.7702 332.58 91.499 333.383C92.2283 334.187 93.6141 332.653 93.6141 332.653C93.6141 332.653 92.666 335.281 94.5617 334.989C96.458 334.697 96.5308 333.529 96.5308 333.529C96.5308 333.529 96.3852 336.377 97.6977 334.697C99.0098 333.018 99.0098 331.922 99.0098 331.922C99.0098 331.922 101.052 332.945 104.844 333.382C132.021 335.579 130.526 332.379 142.619 333.276C142.619 333.276 144.344 341.352 126.6 347.118C101.061 355.417 91.3699 356.65 92.252 365.925C93.1346 375.199 107.817 380.42 126.782 367.614C145.747 354.806 154.734 344.579 156.058 314.107C158.753 274.41 154.244 255.958 139.249 228.577C124.253 201.196 122.96 200.892 118.55 188.526C114.139 176.16 113.561 167.907 113.561 165.842L107.689 176.464C96.6887 177.311 81.0499 177.655 70.2524 176.55L65.1545 168.572C65.1545 168.572 61.9725 174.049 59.203 182.4C56.8169 189.594 54.5072 194.67 57.4099 208.703C63.8879 222.598 65.8854 232.6 66.4536 243.589C66.7468 257.882 66.3241 267.465 66.3241 267.465C66.3241 267.465 63.4549 266.523 60.9382 270.09C54.5402 281.157 54.9722 306.742 64.5357 322.299L64.5367 322.3Z" fill="#ED7F2A"/>
<path fill-rule="evenodd" clip-rule="evenodd" d="M85.0509 245.881C90.588 241.19 98.0121 241.729 100.863 251.073C103.714 260.417 90.6438 333.898 90.6438 333.898L84.3361 333.839C83.055 320.234 77.4364 252.334 85.0504 245.881H85.0509Z" fill="white"/>
<path fill-rule="evenodd" clip-rule="evenodd" d="M78.9002 202.076C79.7286 196.933 81.7456 184.967 85.4881 181.221C86.2174 186.148 87.9227 202.838 85.5944 206.865C82.7639 211.759 78.014 207.579 78.8996 202.076L78.9002 202.076Z" fill="white"/>
<path d="M82.5137 204.535C82.9787 203.604 83.4432 203.139 84.3733 203.139C85.3999 203.139 86.2329 203.973 86.2329 205.001C86.2329 206.863 84.3733 208.725 82.5137 210.587C80.6541 208.725 78.7944 206.863 78.7944 205.001C78.7944 203.973 79.6275 203.139 80.6541 203.139C81.5841 203.139 82.0492 203.604 82.5137 204.535Z" fill="#333333"/>
<path d="M73.0564 211.749L73.9054 210.628L74.2611 211.249L74.6218 211.807L74.9867 212.303L75.3547 212.741L75.7233 213.121L76.0918 213.448L76.4593 213.722L76.8237 213.946L77.1849 214.123L77.5416 214.255L77.8915 214.343L78.2348 214.389L78.5687 214.397L78.8928 214.367L79.2056 214.3L79.5065 214.201L79.7925 214.07L80.0639 213.909L80.3179 213.722L80.5548 213.509L80.7721 213.273L80.9687 213.018L81.1442 212.744L81.2975 212.455L81.4281 212.154L81.5354 211.839L81.6185 211.515L81.6774 211.181L81.7125 210.837L81.7212 210.483L81.7027 210.116L81.6562 209.737L82.7324 209.311L82.8031 209.881L82.8314 210.448L82.817 211.005L82.7628 211.548L82.6704 212.072L82.5414 212.575L82.3788 213.052L82.1852 213.5L81.9633 213.918L81.715 214.306L81.442 214.66L81.1468 214.979L80.8314 215.264L80.4965 215.511L80.1445 215.719L79.777 215.888L79.3945 216.015L79.0002 216.097L78.5935 216.136L78.1785 216.126L77.7548 216.069L77.3259 215.961L76.8913 215.801L76.4546 215.587L76.0164 215.317L75.5787 214.99L75.1431 214.605L74.7116 214.159L74.2858 213.652L73.8672 213.082L73.4569 212.449L73.0564 211.749Z" fill="black"/>
<path d="M92.6612 211.749L92.2101 212.449L91.7482 213.082L91.2764 213.652L90.7969 214.159L90.3107 214.605L89.8204 214.99L89.3275 215.317L88.8341 215.587L88.3422 215.801L87.8534 215.961L87.3698 216.069L86.8929 216.126L86.4253 216.136L85.968 216.097L85.5231 216.015L85.0931 215.888L84.6787 215.719L84.2823 215.511L83.905 215.264L83.5494 214.979L83.2175 214.66L82.9099 214.306L82.6301 213.918L82.3798 213.5L82.162 213.052L81.9788 212.575L81.8343 212.072L81.7295 211.549L81.6681 211.005L81.6526 210.448L81.6841 209.881L81.7641 209.311L82.976 209.737L82.9233 210.117L82.9027 210.483L82.913 210.837L82.9517 211.18L83.0183 211.515L83.1127 211.839L83.233 212.154L83.3801 212.455L83.5525 212.744L83.7502 213.018L83.9721 213.273L84.2173 213.509L84.4831 213.722L84.7695 213.909L85.0751 214.07L85.3976 214.201L85.7352 214.3L86.0882 214.367L86.4531 214.397L86.8294 214.389L87.2155 214.343L87.6093 214.255L88.0113 214.123L88.4181 213.946L88.8289 213.722L89.2428 213.448L89.6583 213.121L90.0733 212.741L90.4872 212.303L90.8986 211.807L91.3048 211.249L91.7048 210.628L92.6612 211.749Z" fill="black"/>
<path d="M61.2607 194.306C63.8357 191.429 70.2554 191.124 72.3122 196.222" stroke="black" stroke-width="2.07985" stroke-miterlimit="22.9256"/>
<path d="M95.3716 194.626C97.9466 191.749 104.366 191.444 106.423 196.542" stroke="black" stroke-width="2.07985" stroke-miterlimit="22.9256"/>
<path fill-rule="evenodd" clip-rule="evenodd" d="M60.9155 202.277C60.0592 201.909 44.6382 199.336 44.6382 199.336L45.801 203.258L60.8546 203.074L60.9155 202.277V202.277Z" fill="#1A1A1A"/>
<path fill-rule="evenodd" clip-rule="evenodd" d="M60.61 205.709L45.9849 206.137L47.4533 209.447L60.7323 206.505L60.61 205.709Z" fill="#333333"/>
<path fill-rule="evenodd" clip-rule="evenodd" d="M85.614 196.722C86.2659 205.849 93.9362 210.991 104.265 209.23C108.653 208.482 115.003 203.951 115.565 199.07C115.747 197.489 115.459 193.075 116.007 191.433C116.701 189.346 117.461 189.384 119.15 189.215C119.15 189.215 119.404 185.329 119.104 184.227C118.874 183.381 118.631 182.843 116.781 182.766C115.201 182.644 108.821 182.645 100.801 182.462C94.5514 182.81 88.9544 182.505 87.7539 184.718C87.6182 184.984 87.4845 185.23 87.3544 185.464C84.4181 185.876 80.0289 185.785 77.2619 185.2C77.1458 184.991 77.0276 184.771 76.9079 184.537C75.7074 182.323 70.1104 182.629 63.8606 182.281C55.8409 182.464 49.4615 182.464 47.8816 182.585C46.0307 182.661 45.7876 183.2 45.5579 184.045C45.2581 185.148 45.512 189.033 45.512 189.033C47.2008 189.203 47.9611 189.165 48.6558 191.252C49.2024 192.895 48.9144 197.307 49.0971 198.889C49.6597 203.771 56.0102 208.301 60.3978 209.049C70.7262 210.809 78.3964 205.667 79.0488 196.541C79.1887 194.58 79.232 193.044 79.1959 191.805C80.7706 190.947 83.4974 190.547 85.484 191.548C85.4225 192.86 85.4576 194.524 85.6145 196.723L85.614 196.722ZM90.5364 186.004H110.64C111.849 186.004 113.112 186.965 113.113 188.187L113.123 197.337C112.41 203.005 106.792 207.422 100.657 207.422C94.5266 207.422 89.2311 202.851 88.3454 197.176L88.3392 188.228C88.3387 187.004 89.3276 186.004 90.5364 186.004ZM53.8197 186.004H73.9231C75.1314 186.004 76.3948 186.965 76.3959 188.187L76.4062 197.337C75.6934 203.005 70.0748 207.422 63.9395 207.422C57.8094 207.422 52.5139 202.851 51.6282 197.176L51.6215 188.228C51.621 187.004 52.6104 186.004 53.8192 186.004H53.8197Z" fill="#666666"/>
<path fill-rule="evenodd" clip-rule="evenodd" d="M53.8193 186.004H73.9232C75.1315 186.004 76.395 186.965 76.396 188.187L76.4063 197.337C75.6935 203.005 70.0749 207.422 63.9396 207.422C57.8095 207.422 52.514 202.851 51.6283 197.176L51.6216 188.228C51.6211 187.004 52.6105 186.004 53.8188 186.004H53.8193Z" fill="white" fill-opacity="0.501961" stroke="black" stroke-opacity="0.501961" stroke-width="0.755792" stroke-miterlimit="22.9256"/>
<path fill-rule="evenodd" clip-rule="evenodd" d="M90.5363 186.004H110.64C111.848 186.004 113.111 186.965 113.113 188.187L113.123 197.337C112.411 203.005 106.792 207.422 100.657 207.422C94.527 207.422 89.2315 202.851 88.3458 197.176L88.3396 188.228C88.3391 187.004 89.328 186.004 90.5368 186.004H90.5363Z" fill="white" fill-opacity="0.501961" stroke="black" stroke-opacity="0.501961" stroke-width="0.755792" stroke-miterlimit="22.9256"/>
<path fill-rule="evenodd" clip-rule="evenodd" d="M74.8567 331.222C74.8567 331.222 74.2998 317.166 72.8629 307.814C70.6874 293.655 66.9428 284.327 66.1154 268.873C62.7105 280.593 67.8368 295.329 70.067 307.122C73.0605 322.949 74.8567 331.222 74.8567 331.222Z" fill="#BF4F04"/>
<path fill-rule="evenodd" clip-rule="evenodd" d="M108.864 285.42C111.14 275.708 113.735 269.1 114.133 268.767C114.93 267.77 116.661 266.305 112.218 285.18C103.991 314.774 99.2008 328.867 98.3249 329.785C97.3329 330.825 101.98 314.807 108.864 285.42Z" fill="#BF4F04"/>
<path fill-rule="evenodd" clip-rule="evenodd" d="M122.491 325.182C122.491 325.182 118.182 297.788 122.857 286.419C127.532 275.05 129.832 275.675 132.637 270.726C140.311 260.161 129.007 263.572 122.095 280.604C118.751 288.841 117.569 296.213 117.88 306.105C118.222 316.998 121.551 323.973 118.345 324.508C115.767 324.938 102.491 322.21 103.383 327.177C103.575 328.243 104.157 329.073 105.863 329.466C99.0134 329.781 102.926 334.09 106.951 333.434C102.219 332.264 104.226 329.935 108.892 330.597C100.476 324.42 116.066 326.523 116.301 326.211C122.649 326.365 122.491 325.181 122.491 325.181V325.182Z" fill="#BF4F04"/>
<path fill-rule="evenodd" clip-rule="evenodd" d="M116.653 201.798C117.51 201.431 132.931 198.857 132.931 198.857L131.768 202.779L116.714 202.595L116.653 201.798Z" fill="#333333"/>
<path fill-rule="evenodd" clip-rule="evenodd" d="M116.959 205.229L131.584 205.657L130.115 208.966L116.837 206.025L116.959 205.229Z" fill="#333333"/>
</g>
<defs>
<clipPath id="clip0_37831_395">
<rect width="224" height="404" fill="white"/>
</clipPath>
</defs>
</svg>
