<?xml version="1.0" encoding="UTF-8"?>
<!DOCTYPE svg PUBLIC "-//W3C//DTD SVG 1.1//EN" "http://www.w3.org/Graphics/SVG/1.1/DTD/svg11.dtd">
<!-- Creator: CorelDRAW -->
<svg xmlns="http://www.w3.org/2000/svg" xml:space="preserve" width="93.5007mm" height="83.7651mm" version="1.1" style="shape-rendering:geometricPrecision; text-rendering:geometricPrecision; image-rendering:optimizeQuality; fill-rule:evenodd; clip-rule:evenodd"
viewBox="0 0 35685.52 31969.82"
 xmlns:xlink="http://www.w3.org/1999/xlink"
 xmlns:xodm="http://www.corel.com/coreldraw/odm/2003">
 <defs>
  <style type="text/css">
   <![CDATA[
    .str20 {stroke:black;stroke-width:76.33;stroke-miterlimit:22.9256;stroke-opacity:0.501961}
    .str19 {stroke:black;stroke-width:210.03;stroke-miterlimit:22.9256}
    .str18 {stroke:black;stroke-width:210.03;stroke-miterlimit:22.9256}
    .str16 {stroke:#E3FA92;stroke-width:192.36;stroke-linejoin:round;stroke-miterlimit:22.9256}
    .str13 {stroke:#E3FA92;stroke-width:192.36;stroke-linejoin:round;stroke-miterlimit:22.9256}
    .str17 {stroke:#E3FA92;stroke-width:192.36;stroke-linejoin:round;stroke-miterlimit:22.9256}
    .str10 {stroke:#E3FA92;stroke-width:192.36;stroke-linejoin:round;stroke-miterlimit:22.9256}
    .str12 {stroke:#E3FA92;stroke-width:192.36;stroke-linejoin:round;stroke-miterlimit:22.9256}
    .str9 {stroke:#E3FA92;stroke-width:192.36;stroke-linejoin:round;stroke-miterlimit:22.9256}
    .str11 {stroke:#E3FA92;stroke-width:192.36;stroke-linejoin:round;stroke-miterlimit:22.9256}
    .str15 {stroke:#E3FA92;stroke-width:192.36;stroke-linejoin:round;stroke-miterlimit:22.9256}
    .str14 {stroke:#E3FA92;stroke-width:192.36;stroke-linejoin:round;stroke-miterlimit:22.9256}
    .str1 {stroke:#9999FF;stroke-width:96.18;stroke-linejoin:round;stroke-miterlimit:22.9256}
    .str5 {stroke:#5699EC;stroke-width:96.18;stroke-linejoin:round;stroke-miterlimit:22.9256}
    .str0 {stroke:#0C7D2C;stroke-width:250.98;stroke-linecap:round;stroke-miterlimit:22.9256}
    .str4 {stroke:#6666FF;stroke-width:96.18;stroke-linecap:round;stroke-miterlimit:22.9256}
    .str3 {stroke:#6666FF;stroke-width:96.18;stroke-linecap:round;stroke-miterlimit:22.9256}
    .str2 {stroke:#6666FF;stroke-width:96.18;stroke-linecap:round;stroke-miterlimit:22.9256}
    .str7 {stroke:#6666FF;stroke-width:96.18;stroke-linecap:round;stroke-miterlimit:22.9256}
    .str8 {stroke:#6666FF;stroke-width:96.18;stroke-linecap:round;stroke-miterlimit:22.9256}
    .str6 {stroke:#6666FF;stroke-width:96.18;stroke-linecap:round;stroke-miterlimit:22.9256}
    .fil26 {fill:none}
    .fil13 {fill:#028A83}
    .fil7 {fill:#035F55}
    .fil15 {fill:#04656B}
    .fil10 {fill:#078A84}
    .fil42 {fill:#1A1A1A}
    .fil27 {fill:#27479B}
    .fil8 {fill:#2B8D76}
    .fil11 {fill:#2FA7A6}
    .fil14 {fill:#32ABA8}
    .fil43 {fill:#333333}
    .fil30 {fill:#4848C7}
    .fil33 {fill:#4D4D4D}
    .fil29 {fill:#5698EC}
    .fil17 {fill:#5FA157}
    .fil44 {fill:#666666}
    .fil4 {fill:#7BC257}
    .fil32 {fill:gray}
    .fil1 {fill:#89B2E8}
    .fil25 {fill:#8DC270}
    .fil3 {fill:#9DDE74}
    .fil24 {fill:#9ED07B}
    .fil0 {fill:#A2C6F9}
    .fil18 {fill:#AA3B43}
    .fil38 {fill:#BF4F04}
    .fil19 {fill:#C44D51}
    .fil20 {fill:#C54C4F}
    .fil22 {fill:#C94A52}
    .fil34 {fill:#CCCCCC}
    .fil28 {fill:#D1CAD7}
    .fil5 {fill:#DBEACD}
    .fil2 {fill:#E6E6E6}
    .fil23 {fill:#EB5A65}
    .fil36 {fill:#EBB84C}
    .fil21 {fill:#EC5967}
    .fil39 {fill:#ED7F2A}
    .fil37 {fill:#F5CB5E}
    .fil31 {fill:yellow}
    .fil35 {fill:white}
    .fil41 {fill:black;fill-rule:nonzero}
    .fil12 {fill:#128039;fill-rule:nonzero}
    .fil16 {fill:#2FA7A6;fill-rule:nonzero}
    .fil40 {fill:#333333;fill-rule:nonzero}
    .fil6 {fill:#65AD5A;fill-rule:nonzero}
    .fil9 {fill:#E6C84E;fill-rule:nonzero}
    .fil45 {fill:white;fill-opacity:0.501961}
   ]]>
  </style>
 </defs>
 <g id="Слой_x0020_1">
  <metadata id="CorelCorpID_0Corel-Layer"/>
  <g id="_2082770456064">
   <g>
    <rect class="fil0" x="4126.25" y="3629.29" width="9955.29" height="28177.49"/>
    <rect class="fil1" x="4168.2" y="6207.81" width="9915.74" height="704.75"/>
    <rect class="fil1" x="4168.21" y="7793.5" width="9916.78" height="729.9"/>
    <path class="fil0" d="M6643.87 0l4863.77 0 0 2070.28 -4863.77 0c-179.19,0 -325.75,-146.56 -325.75,-325.71l0 -1418.82c0,-179.15 146.56,-325.75 325.75,-325.75z"/>
    <rect class="fil2" x="6884.79" y="377.71" width="4623.82" height="647.09"/>
    <polygon class="fil2" points="6900.61,1324.71 6821.68,1892.88 11493.32,1908.65 11501.76,1317.26 "/>
    <path class="fil0" d="M3338.35 2058.56l9334.04 0 0 1582.97 -9460.68 0c-139.31,0 -253.27,-113.96 -253.27,-253.27l0 -949.8c0,-208.96 170.95,-379.9 379.9,-379.9z"/>
    <polygon class="fil1" points="12654.83,2495.14 5339.54,2478.77 12657.88,2927.56 "/>
    <circle class="fil1" transform="matrix(0.603571 -0.603571 0.603571 0.603571 9025.93 5150.72)" r="917.4"/>
   </g>
   <g>
    <path class="fil0" d="M3109.27 9640.09c202.93,-426.24 67.29,-1060.6 283.61,-1582.33 -586.54,407.31 -447.54,1172.61 -283.61,1582.33z"/>
    <path class="fil0" d="M2497.2 9819.21c338.11,-1008 -296.89,-1895.9 -1179.29,-2657.16 787.33,1142.39 699.97,1698.5 1179.29,2657.16z"/>
    <path class="fil0" d="M2019.52 10132.7c139.27,-1023 -1421.38,-1535.61 -1970.47,-1477.87 893.51,454.56 1345.62,866.25 1970.47,1477.87z"/>
    <path class="fil0" d="M1765.71 10774.62c-129.99,-562.03 -1155.9,-892.4 -1627.09,-656.8 467.95,56.71 1254.75,377.46 1627.09,656.8z"/>
   </g>
   <g>
    <path class="fil0" d="M11212.88 11359.02c155.95,-327.46 51.71,-814.88 217.97,-1215.82 -450.7,312.96 -343.91,901.02 -217.97,1215.82z"/>
    <path class="fil0" d="M10742.6 11496.68c259.8,-774.54 -228.12,-1456.8 -906.14,-2041.73 604.97,877.78 537.84,1305.13 906.14,2041.73z"/>
    <path class="fil0" d="M10375.55 11737.55c107.02,-786.07 -1092.16,-1179.9 -1514.09,-1135.55 686.57,349.26 1033.96,665.62 1514.09,1135.55z"/>
    <path class="fil0" d="M10180.56 12230.8c-99.92,-431.89 -888.2,-685.73 -1250.24,-504.71 359.56,43.59 964.11,290.06 1250.24,504.71z"/>
    <path class="fil3" d="M5810.47 8287.41c-1280.09,2688.19 -1217.57,6764.7 569.86,9177.71 599.82,809.81 1788.19,1134.49 1788.19,1134.49 2307.48,-3829.39 -1082.47,-9110.04 -2358.05,-10312.2z"/>
    <path class="fil4" d="M4946.05 11928.72c-7.37,151.56 -11.72,303.53 -12.79,455.55l1599.77 207.17 -78.24 -417.08 -1508.74 -245.64z"/>
    <path class="fil5" d="M5060.63 10797.75c-37.75,243.08 -67.06,489.25 -88.16,737.06l960.94 339.72 -872.78 -1076.78z"/>
    <path class="fil4" d="M8113.68 18461.98c1468.32,-2254.54 789.88,-4969.41 -264.07,-7089.42l-4.16 3.17c-133.24,-301.36 -401.24,-877.32 -724.2,-1408.44 -464.21,-763.4 -1258.6,-1681.52 -1258.6,-1681.52 0,0 0,309.45 103.2,918.12 87.93,519.02 513.33,2537.7 636.8,3121.37l-56.07 42.82c0,0 17.17,188.65 205.79,960.33 154.31,631.3 1043.04,3947.74 1361.31,5133.56z"/>
    <path class="fil3" d="M8325.04 12446.4c-105.45,-272.12 -220.26,-538.26 -341.47,-796.56 -295.25,191.56 -1224.4,797.71 -1396.72,950.11 27.29,136.44 72.67,345.14 147.86,655.85l1590.34 -809.39z"/>
    <path class="fil6" d="M5734.52 8379.01c-9.5,-57.02 29.04,-111.03 86.06,-120.49 57.06,-9.5 111.03,29.04 120.53,86.06 284.91,1703.24 579.32,3347.58 941.63,5023.61 362.16,1675.6 791.3,3378.69 1345.16,5197.11 16.75,55.23 -14.46,113.62 -69.69,130.38 -55.19,16.72 -113.62,-14.5 -130.34,-69.69 -557.34,-1829.76 -987.85,-3537.46 -1350.12,-5213.52 -362.2,-1675.6 -657.33,-3324.22 -943.24,-5033.45z"/>
    <path class="fil7" d="M11444.39 22897.87c-1906.62,-2940.77 749.01,-6270.49 3485.09,-7435.89 1231.16,-524.36 1621.9,-612.22 1621.9,-612.22 -110.72,2894.13 -3128.85,6310.53 -5107,8048.11z"/>
    <path class="fil8" d="M11444.39 22897.87c-94.08,-145.11 -176.67,-291.17 -249.03,-437.84l99.88 -1156.97c0,0 317.39,-464.79 736.8,-1076.89 419.44,-612.11 1088.23,-1405.62 1088.23,-1405.62l-410.48 -1889.98c113.24,-106.86 229.61,-210.33 348.8,-310.06l277.05 1939.33 1326.27 -1518.93 -424.75 -1236.5c125.76,-70.8 252.51,-137.32 379.83,-199.34l294.3 1186.43 1088.23 -1144.87 -872.86 1246.92 963.69 -62.17c-39.81,99.38 -81.79,198.81 -125.83,298.19l-1143.91 24.69 -1938.38 2278.44 1840.14 -159.61c-78.09,110.76 -157.55,220.6 -238.23,329.53l-1851.28 136.14 -1167.58 1745.68 18.17 1378.9 -39.04 34.54z"/>
    <path class="fil9" d="M10863.28 25240.5c-22.63,53.2 -84.16,77.97 -137.32,55.34 -53.2,-22.63 -78.01,-84.16 -55.34,-137.32l991.55 -2330.72c22.67,-53.2 84.19,-77.97 137.36,-55.34 53.17,22.63 77.97,84.16 55.34,137.32l-991.59 2330.72z"/>
    <path class="fil10" d="M9434.84 22776.08c-2301.07,-186.56 -2202.03,-3465.13 -1773.69,-5042.35 557.45,-2052.38 1216.28,-3217.93 2027.07,-4332.84 810.84,-1114.87 1216.28,-1494.93 1216.28,-1494.93 0,0 633.4,734.77 962.81,3192.59 329.41,2457.82 152.02,3800.77 -253.38,5067.69 -260.6,814.35 -706.03,2009.21 -2179.09,2609.83z"/>
    <path class="fil11" d="M10204.53 15930.09c-41.41,-810.46 378.99,-3408.42 649.78,-3798.67 22.14,1238.72 -220.52,2642.43 -449.86,3865.3 0,0 483.18,-183.24 733.09,-166.59 249.91,16.64 183.27,183.27 183.27,183.27 0,0 -983,233.27 -983,333.23 0,99.96 -416.47,2582.39 -416.47,2582.39 0,0 1382.83,-633.14 1516.11,-499.82 133.28,133.31 -216.59,316.55 -216.59,316.55l-1232.88 549.82c-105.68,1021.74 -199.42,2564.68 -516.5,3515.44 -81.68,-163.43 70.19,-3117.4 183.27,-3532.08l-1366.19 -1482.83c0,0 -116.64,-216.59 183.27,-83.28 299.87,133.28 1232.88,1116.24 1232.88,1116.24l333.23 -2499.11c0,0 -816.37,-983 -916.33,-1182.92 -100,-199.91 -133.31,-399.83 49.96,-249.91 183.27,149.95 1032.96,1032.96 1032.96,1032.96z"/>
    <path class="fil12" d="M8480.08 24698.7c18.78,54.54 -10.23,114.04 -64.77,132.82 -54.54,18.78 -114.04,-10.23 -132.82,-64.77l-2090.62 -6026.99c-18.78,-54.58 10.23,-114.08 64.77,-132.86 54.54,-18.78 114.04,10.23 132.82,64.77l2090.62 6027.03z"/>
    <path class="fil13" d="M6739.28 18920.4c0,0 1114.87,-1292.26 -253.42,-3471.43 -1065.98,-1715.98 -3618.52,-3428.23 -5574.61,-4003.58 313.61,2524.19 2605.79,9981.79 5828.03,7475.01z"/>
    <path class="fil14" d="M5434.5 14174.87c-66.18,-64.65 -133.96,-128.85 -202.97,-192.51l-837.97 1785.87 -1066.32 -1466.15 671.34 -1306.16c-101.71,-71.07 -204.46,-140.64 -308.08,-208.69l-663.17 1264.94c-206.36,-474.63 -1137.42,-1655.11 -1582.78,-1866.05 237.39,652.79 919.73,1424.66 1399.51,1932.69 -229.57,11.45 -787.37,139.57 -1224.79,287.01 29.69,91.22 60.46,182.82 91.83,274.6 374.87,-155.64 777.48,-226.59 1282.91,-295.06l1149.64 1482.83c-503.72,70.07 -1282.3,278.42 -1760.9,500.05 43.89,94.42 88.7,187.74 134.27,280.14 568.33,-275.94 1258.03,-387.96 1859.87,-446.96 804.01,869.16 1439.55,1911.74 2122.8,2886.8 66.33,-42.17 133.08,-88.28 200.26,-138.96 -652.22,-1022.39 -1316.31,-1999.18 -2039.82,-2981.11l774.39 -1793.27z"/>
    <path class="fil15" d="M6982.25 18493.32c226.9,-547.57 409.64,-1601.41 -496.39,-3044.35 -1052.7,-1694.61 -3555.09,-3385.44 -5501.18,-3981.41 133.73,185.45 324.64,443.87 576.5,635.27 3705.39,2816.01 3099.73,2440.99 5421.07,6390.48z"/>
    <path class="fil12" d="M10580.7 24791.82c-27.86,50.72 -91.56,69.23 -142.28,41.41 -50.72,-27.86 -69.23,-91.56 -41.41,-142.28l1092.43 -1977.57c27.82,-50.72 91.52,-69.27 142.24,-41.41 50.72,27.86 69.23,91.56 41.41,142.28l-1092.39 1977.57z"/>
    <path class="fil16" d="M9465.18 24870.71c-3.36,57.71 -52.97,101.75 -110.68,98.35 -57.71,-3.36 -101.75,-52.97 -98.39,-110.68l128.77 -2178.63c3.4,-57.71 53.01,-101.75 110.72,-98.39 57.71,3.4 101.75,52.97 98.35,110.72l-128.77 2178.63z"/>
    <path class="fil17" d="M-0.04 19101.23c0,0 1393.75,-150.68 2090.62,-56.49 696.87,94.16 772.21,150.64 772.21,150.64 0,0 -0.04,489.71 244.84,847.55 244.87,357.88 339.03,376.7 339.03,376.7l150.68 -979.38c0,0 1487.9,527.34 2222.45,1732.74 734.54,1205.44 659.2,1638.62 659.2,1638.62 0,0 -734.51,546.19 -2297.79,207.17 -1563.24,-339.03 -2919.36,-1563.2 -3522.04,-2542.62 -602.68,-979.42 -659.2,-1374.93 -659.2,-1374.93z"/>
    <path class="fil12" d="M8079.22 24516.49c25.8,51.6 4.89,114.38 -46.72,140.22 -51.64,25.8 -114.42,4.85 -140.26,-46.75 -500.74,-1001.59 -1773.46,-1999.75 -3183.81,-2865.12 -1420.2,-871.37 -2977.71,-1605.99 -4035.37,-2077.23 -52.75,-23.55 -76.45,-85.42 -52.9,-138.16 23.51,-52.71 85.42,-76.41 138.12,-52.9 1063.73,473.91 2630.29,1212.8 4059.19,2089.55 1438.78,882.78 2740.4,1907.65 3261.75,2950.39z"/>
    <path class="fil18" d="M5133.29 25691.05c172.36,1424.74 476.73,3894.08 967.28,5251.61 167.85,464.52 469.56,840.15 1167.5,985.29l4248.64 41.87c716.34,-61.49 1100.06,-560.96 1234.79,-1234.82 0,0 397.61,-2385.95 544.13,-3285.91 146.56,-899.96 209.3,-1548.74 209.3,-1548.74l-8371.65 -209.3z"/>
    <path class="fil19" d="M5341.11 27309.22c178.43,1273.26 425.89,2710.36 759.47,3633.45 44.73,123.89 99,241.4 167.82,349.94 2225.04,286.67 5466.03,-1411.07 5248.33,-3927.21l-6175.61 -56.18z"/>
    <rect class="fil20" x="4191.48" y="24330.65" width="10213.41" height="2030.13" rx="1088.34" ry="1015.08"/>
    <path class="fil21" d="M5919.32 24330.66l7470.55 0c27.52,0 54.73,1.18 81.71,3.32 343.69,401.13 112.36,1185.59 -615.43,1084.98l-7722.86 -41.87c250.45,-404.83 504.17,-727.25 786.03,-1046.44z"/>
   </g>
   <g>
    <polygon class="fil22" points="28270.58,20941.44 32356.29,21052.89 30833.39,27218.61 27527.72,27107.2 "/>
    <rect class="fil23" x="27892.37" y="20272.85" width="4828.58" height="1894.31" rx="218.55" ry="218.55"/>
    <g>
     <path class="fil24" d="M26440.44 15633.77c1237.72,-439.52 3941.18,-1063.38 5668.54,-944.76l652.3 1079.72 337.39 -1057.2c366.36,-26.14 2538.16,56.49 2586.86,202.43 -2055.24,3583.45 -6086.42,5112.53 -9737.72,6429.99l492.65 -5710.17z"/>
     <path class="fil17" d="M26087.75 21596.45c2925.81,-945.95 8538.24,-3648.18 9575.25,-6682.49 -1479.16,2932.72 -7527.72,4949.98 -9740.7,5652.77l165.45 1029.72z"/>
     <path class="fil17" d="M28194.97 17658.25c449.9,-179.95 7445.55,-2744.29 7445.55,-2744.29l-7875.3 3380.02 429.75 -635.73z"/>
     <path class="fil25" d="M24326.12 15230.12c420.59,-1633.28 1726.29,-3899 2555.94,-4800.91l1015.67 765.65 140.6 -249.99 -609.4 -1093.76c542.19,-649.2 1778.5,-1883.42 3203.16,-2593.8l-4534.2 10875.6 -1771.78 -2902.79z"/>
     <path class="fil17" d="M25115.05 17023.96c1227.38,-3067.9 2899.82,-6525.21 5563.92,-9829.17 296.47,989.07 329.87,2596.7 140.68,4203.19l-968.81 78.16 -265.64 500.01 1140.67 93.74c-341.01,2228.55 -3672.72,7305.13 -4803.5,8694.03l-807.33 -3739.97z"/>
     <path class="fil26 str0" d="M25638.65 18023.99c973.92,-2482.97 3515.51,-8147.46 4983.45,-10711.22"/>
    </g>
    <g>
     <g>
      <path class="fil27" d="M15360.65 28254.32l19206.91 73.7c0,0 460.13,-30.11 650.62,148.85 73.24,183.69 -56.22,268.61 -332.08,268.99l-13070.15 224.61c-1994.71,84.04 -2253.02,1812.28 -285.41,2109.4l13460.44 210.49c437.46,-10.95 758.13,167.24 168.5,443.18 -268.69,125.72 -19971.3,68.47 -19971.3,68.47 -664.81,-883.51 -1036.78,-2547.7 172.47,-3547.69z"/>
      <path class="fil2" d="M34967.65 28720.67c-678.59,578.41 -670.77,2242.94 -72.21,2583.12l-14818.73 133.66c0,0 -667.33,-368.91 -552.8,-1438.29 114.54,-1069.41 543.9,-1273.41 543.9,-1273.41l14899.83 -5.08z"/>
      <path class="fil28" d="M34877.73 28807.84c-570.66,625.12 -554.44,2088.45 -27.82,2466.48l-0.31 27.25 -579.4 7.82 -5849.33 52.78 -868.05 -1293.83 -6895 37.86 -291.21 -190.79c101.03,0 7292,-28.89 7292,-28.89l1140.74 -1140.71 6079.09 0 -0.73 62.02z"/>
      <path class="fil29" d="M16556.32 31621.41c-543.33,-1064.18 -460.05,-2320.23 394.22,-3361.02l591.76 2.29c-777.21,924.11 -783.17,1901.17 -235.18,3360.71l-750.8 -1.98z"/>
     </g>
     <path class="fil30" d="M15360.65 28254.28l940.56 3.63c-736.26,840.03 -1081.7,1924.94 -434.29,3361.67l-701.84 -1.95c-664.74,-883.51 -1013.73,-2363.32 195.56,-3363.34z"/>
    </g>
    <g>
     <path class="fil31" d="M22913.14 5377.9c31.18,-19.39 61.79,-39.69 91.6,-61.03 13.05,-8.24 26.49,-16.64 40.53,-25.27 388.45,-238.35 570.54,-759.77 570.54,-759.77l-2.4 0c74.84,-193.88 115.99,-404.64 115.99,-625.05 0,-955.14 -770.88,-1729.46 -1721.78,-1729.46 -950.87,0 -1721.71,774.31 -1721.71,1729.46 0,216.13 39.54,422.99 111.64,613.67l-8.93 -0.04c0,0 151.9,497.04 540.35,735.38l5.76 3.55c58.32,46.75 119.65,89.77 183.73,128.66 200.03,165.41 204.3,296.78 225.48,529.97 26.49,291.36 17.67,467.92 17.67,467.92l1256.54 10.08c0,0 -8.85,-186.63 17.63,-477.99 23.05,-253.61 21.91,-359.68 277.35,-540.09z"/>
     <rect class="fil32" x="21255.63" y="6223.45" width="1504" height="433.54" rx="201" ry="173.11"/>
     <path class="fil33" d="M22001.12 6934.46l-357.04 -5c-1.98,176.37 153.47,322.12 348.88,327.12 197.17,5 360.63,-135.15 365.17,-313.04 0.23,-9.81 0,-19.58 -0.76,-29.35l-356.24 20.27z"/>
     <rect class="fil34" x="21443.62" y="6644.72" width="1108.39" height="318.61" rx="148.13" ry="127.22"/>
     <path class="fil35 str1" d="M21975.32 2699.18c-309.83,-320.29 -694.93,25.08 -594.09,299.72 -524.29,-27.4 -489.37,424.14 -331.89,572.72 -325.71,113.43 -305.4,518.29 -37.44,647.64 -285.1,514.13 230.22,655.69 331.85,562.03 -28.74,504.52 476.27,528.75 631.57,310.4l0 -2392.51z"/>
     <path class="fil26 str2" d="M21568.59 3004.28c279.38,70.53 110.07,342.12 -32.14,315.79"/>
     <path class="fil26 str3" d="M21354.47 3689.36c-0.04,188.35 259.15,402.04 401.43,353.26"/>
     <path class="fil26 str4" d="M21557.86 4492.26c259.34,43.39 134.08,343.04 -16.07,299.72"/>
     <path class="fil35 str5" d="M21975.32 2699.18c309.87,-320.29 694.97,25.08 594.13,299.72 524.29,-27.4 489.37,424.14 331.89,572.72 325.71,113.43 305.37,518.29 37.44,647.64 285.06,514.13 -230.26,655.69 -331.85,562.03 28.7,504.52 -476.27,528.75 -631.61,310.4l0 -2392.51z"/>
     <path class="fil26 str6" d="M22382.09 3004.28c-279.38,70.53 -110.07,342.12 32.14,315.79"/>
     <path class="fil26 str7" d="M22596.21 3689.36c0.04,188.35 -259.19,402.04 -401.43,353.26"/>
     <path class="fil26 str8" d="M22392.82 4492.26c-259.38,43.39 -134.08,343.04 16.07,299.72"/>
     <line class="fil26 str9" x1="23792.25" y1="5044.67" x2="24537.67" y2= "5477.21" />
     <line class="fil26 str10" x1="24013.12" y1="3995.53" x2="24933.42" y2= "3986.33" />
     <line class="fil26 str11" x1="23801.45" y1="2927.98" x2="24574.5" y2= "2486.25" />
     <line class="fil26 str12" x1="20175.49" y1="5026.24" x2="19393.24" y2= "5486.41" />
     <line class="fil26 str13" x1="19890.23" y1="3995.53" x2="18988.33" y2= "4004.72" />
     <line class="fil26 str14" x1="20203.12" y1="2974.01" x2="19356.44" y2= "2513.88" />
     <path class="fil26 str15" d="M23004.7 2186.11c27.33,-41.07 458.3,-800.38 458.3,-800.38"/>
     <path class="fil26 str16" d="M21951.24 1933c41.03,-61.56 20.5,-957.7 20.5,-957.7"/>
     <line class="fil26 str17" x1="20945.64" y1="2165.58" x2="20459.98" y2= "1385.73" />
    </g>
    <g>
     <rect class="fil36" x="14502.1" y="24460.4" width="20494.12" height="3917.28" rx="1672" ry="1672"/>
     <path class="fil37" d="M16431.02 25016.2l16181.87 0c622.37,0 1131.55,509.17 1131.55,1131.55l0 1519.58 -17313.41 0c-622.45,0 -1131.59,-509.14 -1131.59,-1131.51l0 -388.07c0,-622.37 509.14,-1131.55 1131.59,-1131.55z"/>
     <path class="fil35" d="M16430.98 25016.2l7959.83 0c745,1312.34 -371.89,2330.65 -1424.47,2651.13l-6535.36 0c-622.37,0 -1131.55,-509.14 -1131.55,-1131.51l0 -388.07c0,-622.37 509.17,-1131.55 1131.55,-1131.55z"/>
    </g>
    <g>
     <path class="fil38" d="M19847.53 23661.57c90.53,181.02 237.01,442.27 83.39,518.94 -544.74,90.8 -1253.07,-83.74 -1177.38,112.97 -147.28,36.79 -159.76,182.82 137.13,210.33 -81.87,3.63 -206.33,12.98 -247.66,68.36 -62.82,84.04 -11.37,129.31 71.64,143.2 423.72,105.91 1958.95,116.14 1958.95,116.14 0,0 -18.93,197.55 142.44,141.18 74.08,-66.07 75.07,-174.23 98.32,-255.1 58.17,101.79 37.9,241.93 196.71,257.62 120.03,-42.52 129.73,-294.91 129.73,-294.91 82.97,445.78 416.51,480.62 296.4,-225.18l753.21 -167.63c0,0 -139.15,438.15 -65.42,519.21 73.66,81.1 269.57,-100.15 269.57,-100.15 0,0 -95.83,265.33 95.8,235.87 191.67,-29.5 199.04,-147.4 199.04,-147.4 0,0 -14.73,287.47 117.89,117.89 132.67,-169.5 179.11,-253.5 179.11,-253.5 0,0 452,109.8 835.23,154.04 2746.89,221.74 2595.79,-134.5 3818.09,-43.93 0,0 174.38,815.15 -1619.12,1397.22 -2581.25,837.67 -3560.82,962.17 -3471.62,1898.3 89.16,936.14 1573.17,1463.25 3489.98,170.49 1916.93,-1292.76 2825.28,-2325.11 2959.01,-5400.95 272.39,-4006.98 -183.31,-5869.48 -1698.96,-8633.35 -1515.69,-2763.87 -1646.29,-2794.52 -2092.11,-4042.74 -445.78,-1248.18 -713.48,-2421.22 -713.48,-2629.68l-384.22 1412.14c-1111.85,85.53 -2692.54,120.22 -3783.9,8.7l-763.7 -1197.54c0,0 -73.16,945.14 -353.11,1788.04 -241.13,726.15 -474.63,1238.49 -181.21,2655.02 654.78,1402.64 856.68,2412.21 914.11,3521.43 29.66,1442.75 -13.09,2409.99 -13.09,2409.99 0,0 -290.02,-95.15 -544.4,264.95 -646.69,1117.04 -602.99,3699.59 363.65,5270.01z"/>
     <path class="fil39" d="M19568.07 23568.33c90.53,181.02 237.01,442.27 83.43,518.94 -544.78,90.76 -806.91,-57.52 -731.26,139.23 -147.28,36.79 -159.76,182.82 137.17,210.29 -81.87,3.63 -206.36,13.01 -247.7,68.36 -62.78,84 -11.34,129.34 71.64,143.2 423.76,105.91 1724.53,58.17 1724.53,58.17 0,0 -18.93,197.55 142.44,141.18 74.08,-66.07 75.07,-174.23 98.28,-255.1 58.2,101.79 37.94,241.93 196.75,257.58 120.03,-42.52 129.69,-284.3 129.69,-284.3 0,0 104.99,457.57 267.16,354.41 70.53,-44.88 -7.44,-299.26 -21.72,-403.87 -18.59,-135.99 181.82,-249.72 181.82,-249.72l808.55 91.06c0,0 -189.15,248.19 -115.49,329.26 73.74,81.1 213.77,-73.7 213.77,-73.7 0,0 -95.83,265.33 95.8,235.87 191.67,-29.5 199.04,-147.4 199.04,-147.4 0,0 -14.73,287.47 117.93,117.89 132.63,-169.5 132.63,-280.06 132.63,-280.06 0,0 206.4,103.2 589.67,147.4 2746.89,221.74 2595.79,-101.29 3818.05,-10.72 0,0 174.38,815.15 -1619.12,1397.22 -2581.21,837.67 -3560.78,962.17 -3471.62,1898.3 89.19,936.14 1573.17,1463.21 3490.02,170.49 1916.89,-1292.76 2825.24,-2325.11 2959.01,-5400.95 272.35,-4006.98 -183.35,-5869.52 -1699,-8633.35 -1515.65,-2763.87 -1646.29,-2794.56 -2092.07,-4042.74 -445.82,-1248.18 -504.29,-2081.27 -504.29,-2289.73l-593.44 1072.2c-1111.85,85.53 -2692.5,120.22 -3783.86,8.66l-515.28 -805.27c0,0 -321.63,552.87 -601.54,1395.81 -241.17,726.15 -474.63,1238.49 -181.21,2655.02 654.74,1402.64 856.64,2412.21 914.08,3521.43 29.66,1442.75 -13.09,2409.99 -13.09,2409.99 0,0 -289.99,-95.15 -544.36,264.95 -646.69,1117.04 -603.02,3699.59 363.61,5270.01z"/>
     <path class="fil35" d="M21641.52 15854.67c559.63,-473.56 1310.01,-419.18 1598.2,524.02 288.19,943.2 -1032.89,8360.39 -1032.89,8360.39l-637.53 -5.95c-129.46,-1373.29 -697.37,-8227.15 72.21,-8878.45z"/>
     <path class="fil35" d="M21019.87 11432.83c83.74,-519.1 287.62,-1726.94 665.88,-2105.12 73.7,497.34 246.09,2181.99 10.76,2588.46 -286.09,494.02 -766.18,72.1 -676.65,-483.33z"/>
     <path class="fil40" d="M21385.04 11681.18c46.98,-93.96 93.96,-140.95 187.97,-140.95 103.77,0 187.97,84.19 187.97,187.97 0,187.97 -187.97,375.9 -375.94,563.87 -187.97,-187.97 -375.94,-375.9 -375.94,-563.87 0,-103.77 84.19,-187.97 187.97,-187.97 94,0 140.99,46.98 187.97,140.95z"/>
     <g>
      <polygon class="fil41" points="20429.21,12409.27 20515.01,12296.07 20550.96,12358.81 20587.41,12415.07 20624.32,12465.18 20661.49,12509.34 20698.74,12547.74 20735.99,12580.71 20773.13,12608.42 20810,12631.05 20846.52,12648.91 20882.55,12662.2 20917.93,12671.13 20952.59,12675.78 20986.36,12676.55 21019.11,12673.45 21050.75,12666.78 21081.13,12656.74 21110.06,12643.53 21137.46,12627.31 21163.15,12608.34 21187.08,12586.89 21209.06,12563.12 21228.95,12537.35 21246.65,12509.72 21262.19,12480.56 21275.36,12450.07 21286.19,12418.39 21294.59,12385.64 21300.58,12351.91 21304.09,12317.17 21304.97,12281.41 21303.14,12244.47 21298.41,12206.23 21407.18,12163.1 21414.36,12220.73 21417.18,12277.9 21415.77,12334.2 21410.27,12389 21400.92,12441.9 21387.87,12492.59 21371.46,12540.75 21351.88,12586.05 21329.48,12628.27 21304.36,12667.35 21276.77,12703.11 21246.92,12735.36 21215.05,12764.06 21181.2,12788.98 21145.63,12810.01 21108.46,12827.03 21069.83,12839.82 21029.95,12848.18 20988.88,12852.03 20946.94,12851.12 20904.11,12845.32 20860.72,12834.4 20816.83,12818.22 20772.67,12796.62 20728.4,12769.4 20684.16,12736.43 20640.12,12697.5 20596.53,12652.54 20553.48,12601.36 20511.16,12543.84 20469.67,12479.88 "/>
     </g>
     <g>
      <polygon class="fil41" points="22410.72,12409.27 22365.15,12479.88 22318.43,12543.84 22270.76,12601.36 22222.29,12652.54 22173.17,12697.5 22123.6,12736.43 22073.79,12769.4 22023.91,12796.62 21974.18,12818.22 21924.79,12834.4 21875.9,12845.32 21827.69,12851.12 21780.45,12852.03 21734.23,12848.18 21689.27,12839.82 21645.8,12827.03 21603.89,12810.01 21563.85,12788.98 21525.72,12764.06 21489.77,12735.36 21456.22,12703.11 21425.12,12667.35 21396.88,12628.27 21371.57,12586.05 21349.55,12540.75 21331.04,12492.59 21316.42,12441.9 21305.85,12389.04 21299.63,12334.2 21298.06,12277.9 21301.23,12220.69 21309.32,12163.1 21431.84,12206.23 21426.49,12244.51 21424.39,12281.41 21425.42,12317.17 21429.36,12351.87 21436.11,12385.64 21445.61,12418.39 21457.79,12450.07 21472.64,12480.56 21490.08,12509.72 21510.08,12537.35 21532.48,12563.12 21557.25,12586.89 21584.12,12608.34 21613.09,12627.31 21643.96,12643.53 21676.56,12656.74 21710.72,12666.78 21746.36,12673.45 21783.27,12676.55 21821.28,12675.78 21860.33,12671.13 21900.13,12662.2 21940.74,12648.91 21981.85,12631.05 22023.41,12608.42 22065.2,12580.71 22107.22,12547.74 22149.17,12509.34 22191,12465.18 22232.56,12415.07 22273.63,12358.81 22314.08,12296.07 "/>
     </g>
     <path class="fil26 str18" d="M19236.98 10648.78c260.25,-290.48 909.12,-321.24 1117.01,193.31"/>
     <path class="fil26 str19" d="M22684.64 10681c260.25,-290.48 909.12,-321.21 1117.01,193.35"/>
     <path class="fil42" d="M19202.1 11453.25c-86.56,-37.14 -1645.19,-296.89 -1645.19,-296.89l117.51 395.86 1521.53 -18.55 6.14 -80.42z"/>
     <polygon class="fil43" points="19171.19,11799.6 17692.98,11842.89 17841.4,12176.88 19183.55,11880.02 "/>
     <path class="fil44" d="M21698.46 10892.51c65.87,921.25 841.14,1440.31 1885.1,1262.53 443.45,-75.49 1085.29,-532.76 1142.16,-1025.52 18.43,-159.65 -10.69,-605.08 44.58,-770.88 70.23,-210.68 147.02,-206.82 317.77,-223.92 0,0 25.69,-392.23 -4.62,-503.52 -23.24,-85.42 -47.82,-139.73 -234.87,-147.44 -159.69,-12.29 -804.46,-12.25 -1615.07,-30.69 -631.69,35.11 -1197.38,4.27 -1318.71,227.7 -13.74,26.83 -27.25,51.64 -40.38,75.26 -296.78,41.56 -740.38,32.4 -1020.1,-26.6 -11.72,-21.14 -23.66,-43.28 -35.8,-66.98 -121.33,-223.42 -687.03,-192.55 -1318.71,-227.66 -810.57,18.43 -1455.39,18.4 -1615.03,30.69 -187.05,7.67 -211.63,62.02 -234.87,147.4 -30.3,111.33 -4.62,503.52 -4.62,503.52 170.72,17.1 247.54,13.24 317.73,223.92 55.26,165.83 26.14,611.23 44.58,770.92 56.87,492.76 698.71,950.03 1142.2,1025.52 1043.92,177.74 1819.18,-341.32 1885.1,-1262.57 14.16,-197.93 18.51,-352.96 14.85,-478.07 159.15,-86.56 434.75,-126.98 635.54,-25.95 -6.18,132.44 -2.67,300.37 13.21,522.34zm497.49 -1081.85l2031.92 0c122.17,0 249.83,96.98 249.95,220.41l1.07 923.5c-72.06,572.19 -639.89,1017.96 -1260.01,1017.96 -619.59,0 -1154.83,-461.39 -1244.37,-1034.15l-0.65 -903.28c-0.08,-123.47 99.92,-224.45 222.09,-224.45zm-3711.08 0l2031.92 0c122.13,0 249.83,96.98 249.95,220.41l1.07 923.5c-72.06,572.19 -639.93,1017.96 -1260.05,1017.96 -619.59,0 -1154.83,-461.39 -1244.33,-1034.15l-0.69 -903.28c-0.04,-123.47 99.96,-224.45 222.13,-224.45z"/>
     <path class="fil45 str20" d="M18484.85 9810.66l2031.96 0c122.13,0 249.83,96.98 249.95,220.41l1.07 923.5c-72.06,572.19 -639.93,1017.96 -1260.05,1017.96 -619.59,0 -1154.83,-461.39 -1244.33,-1034.15l-0.69 -903.28c-0.04,-123.47 99.96,-224.45 222.09,-224.45z"/>
     <path class="fil45 str20" d="M22195.96 9810.66l2031.92 0c122.17,0 249.83,96.98 249.99,220.41l1.03 923.5c-72.06,572.19 -639.89,1017.96 -1260.01,1017.96 -619.59,0 -1154.83,-461.39 -1244.37,-1034.15l-0.65 -903.28c-0.08,-123.47 99.92,-224.45 222.09,-224.45z"/>
     <path class="fil38" d="M20611.19 24468.98c0,0 -56.29,-1418.82 -201.52,-2362.86 -219.87,-1429.17 -598.37,-2370.76 -681.99,-3930.64 -344.14,1183.07 173.96,2670.48 399.41,3860.84 302.58,1597.55 484.1,2432.67 484.1,2432.67z"/>
     <path class="fil38" d="M24048.42 19845.66c229.99,-980.33 492.27,-1647.36 532.53,-1680.91 80.57,-100.68 255.48,-248.54 -193.62,1656.71 -831.52,2987.22 -1315.66,4409.74 -1404.17,4502.41 -100.26,104.96 369.45,-1511.91 1065.25,-4478.21z"/>
     <path class="fil38" d="M25425.68 23859.2c0,0 -435.55,-2765.21 36.98,-3912.78 472.53,-1147.5 705,-1084.45 988.5,-1584.01 775.61,-1066.44 -366.81,-722.14 -1065.52,997.01 -337.92,831.49 -457.42,1575.61 -426.01,2574.11 34.58,1099.53 371.01,1803.57 47.02,1857.62 -260.56,43.39 -1602.4,-231.94 -1512.21,269.41 19.39,107.63 78.2,191.4 250.6,231.06 -692.33,31.75 -296.82,466.81 110.03,400.55 -478.34,-118.12 -275.52,-353.19 196.1,-286.32 -850.64,-623.52 725.19,-411.28 748.93,-442.73 641.57,15.53 625.58,-103.93 625.58,-103.93z"/>
     <path class="fil43" d="M24835.64 11404.85c86.6,-37.1 1645.22,-296.86 1645.22,-296.86l-117.51 395.82 -1521.53 -18.55 -6.18 -80.42z"/>
     <polygon class="fil43" points="24866.59,11751.25 26344.8,11794.53 26196.33,12128.52 24854.22,11831.63 "/>
    </g>
   </g>
  </g>
 </g>
</svg>
