<svg width="51" height="66" viewBox="0 0 51 66" fill="none" xmlns="http://www.w3.org/2000/svg">
<g clip-path="url(#clip0_37846_53)">
<path d="M25.1604 63.1201L47.622 62.9731C47.2544 57.2021 44.7807 52.0173 40.9782 48.1999C36.8811 44.0878 31.2403 41.563 25.0283 41.6017L25.014 41.6066C18.8044 41.644 13.1954 44.243 9.14874 48.4105C5.39611 52.2746 2.98967 57.4905 2.69252 63.2684L25.161 63.1207L25.1604 63.1201ZM47.1516 10.3858V24.4469L49.5444 28.6986C49.9113 29.3539 49.6783 30.1837 49.023 30.5506C48.8124 30.6683 48.5832 30.7244 48.3577 30.7244L43.1261 30.7262C42.3736 30.7262 41.7638 30.1158 41.7638 29.3639C41.7638 29.0954 41.8416 28.8449 41.9762 28.6344L44.4275 24.2787V11.6479L36.9727 15.1009C38.7007 17.8088 39.457 20.9248 39.2707 23.9704C39.0409 27.7342 37.3739 31.3972 34.3264 34.064C31.2783 36.7302 27.4291 37.897 23.6721 37.6254C19.9176 37.3538 16.2491 35.6488 13.5592 32.5745C11.0973 29.7607 9.88133 26.2821 9.87136 22.8273C9.86264 19.9181 10.7123 17.0239 12.3937 14.5539L3.33914 10.1883L5.58673 8.90503C6.38784 8.44779 23.7245 0.280949 23.7737 0.2579L24.3237 0L47.9116 10.0344L47.1529 10.3864L47.1516 10.3858ZM45.8621 27.7049L45.7419 27.49L45.4541 28.0015H46.0291L45.8621 27.7049ZM34.479 16.2552L25.0065 20.6357L14.8718 15.7487C13.348 17.8281 12.5774 20.3193 12.5855 22.8267C12.5936 25.6436 13.5879 28.4836 15.6025 30.786C17.799 33.2959 20.7954 34.6888 23.8628 34.91C26.9277 35.1311 30.0623 34.1848 32.5373 32.0189C35.0129 29.8522 36.3678 26.8727 36.5547 23.8103C36.7135 21.2045 36.0308 18.5364 34.4784 16.2546L34.479 16.2552ZM24.3729 2.97582C22.1397 4.02798 13.6333 8.03851 9.36864 10.0793L25.0283 17.6294L41.2106 10.1391L24.3729 2.97644V2.97582ZM49.0043 65.6786C32.6725 65.7857 16.3407 65.8985 0.00886288 66L0.000764572 64.6395C-0.0434647 57.5734 2.73426 51.1564 7.26059 46.4949C11.7832 41.8365 18.0569 38.9317 25.0084 38.8868L25.0227 38.8819C31.9629 38.8457 38.2665 41.6671 42.8452 46.2632C47.4264 50.8624 50.2838 57.2407 50.3293 64.3075C50.3455 64.3237 50.3343 65.5403 50.3343 65.6705L49.0043 65.6792V65.6786Z" fill="#05D0AC"/>
</g>
<defs>
<clipPath id="clip0_37846_53">
<rect width="50.3383" height="66" fill="white"/>
</clipPath>
</defs>
</svg>
