<svg width="57" height="66" viewBox="0 0 57 66" fill="none" xmlns="http://www.w3.org/2000/svg">
<g clip-path="url(#clip0_37909_57)">
<path d="M8.89248 20.8429L8.79912 14.9483C7.2535 15.2102 5.88423 15.8533 4.84172 16.7532C3.56321 17.8528 2.78521 19.3362 2.81115 20.9414L2.81633 20.9622C2.84227 22.5571 3.66694 24.0067 4.97398 25.0622C6.04502 25.9258 7.43504 26.5274 8.98584 26.7401L8.89248 20.8455V20.8429ZM20.1682 11.7326C17.606 13.9732 16.2056 17.0566 16.0111 20.2283C15.8166 23.4077 16.8332 26.6753 19.1076 29.2738C21.3793 31.8723 24.4809 33.3116 27.6552 33.5424C30.7983 33.768 34.0114 32.8085 36.5606 30.6119L36.6332 30.5497C39.1954 28.3065 40.5958 25.2256 40.7903 22.0566C40.9822 18.9057 39.9864 15.6692 37.7561 13.0811L37.6939 13.0085C35.4222 10.4126 32.3205 8.97067 29.1463 8.73986C26.0032 8.51424 22.7901 9.47377 20.2409 11.6703L20.1682 11.7326ZM13.2026 20.0623C13.4386 16.1957 15.1398 12.4328 18.2492 9.67864L18.3192 9.61641C21.4753 6.85711 25.456 5.65122 29.346 5.9313C33.2023 6.20878 36.9704 7.95149 39.7478 11.0868L39.81 11.1594C42.5927 14.3414 43.8375 18.3351 43.5989 22.2199C43.3629 26.0866 41.6617 29.8469 38.5523 32.601L38.4823 32.6632C35.3288 35.4225 31.3454 36.6284 27.4555 36.3484C23.5707 36.0683 19.7741 34.3022 16.9914 31.1202C14.2088 27.9408 12.964 23.9445 13.2026 20.0597V20.0623ZM28.3968 63.0206L51.6408 62.8676C51.2596 56.8952 48.6999 51.5296 44.7659 47.58C40.5258 43.3244 34.6882 40.7129 28.2594 40.7518L28.2438 40.757C21.8176 40.7959 16.0137 43.4852 11.8255 47.7979C7.94333 51.7968 5.45115 57.1935 5.14513 63.1737L28.3968 63.0206ZM53.0723 65.6684C36.1716 65.7799 19.2684 65.8966 2.36769 66.0004L2.35991 64.5922C2.31323 57.279 5.18922 50.6375 9.87276 45.814C14.5537 40.993 21.0448 37.9873 28.2387 37.9407L28.2542 37.9355C35.4377 37.8992 41.9599 40.8192 46.6979 45.5754C51.4385 50.3341 54.3949 56.9367 54.4442 64.2499C54.4597 64.2654 54.4493 65.5258 54.4493 65.6607L53.0723 65.6684ZM43.4459 35.6741C42.9013 36.2265 42.0118 36.2342 41.4568 35.6896C40.9044 35.145 40.8966 34.2555 41.4412 33.7006C42.2841 32.8474 43.031 31.919 43.6741 30.9361C44.1746 30.1711 44.6103 29.3827 44.9759 28.5814L45.1004 20.7988L45.2042 14.2688C44.8307 13.3612 44.3795 12.4483 43.8504 11.564C43.3396 10.7108 42.7612 9.8913 42.1129 9.14183L42.0507 9.06922C38.7468 5.29075 34.237 3.19534 29.6209 2.8634C25.0359 2.53145 20.3498 3.93703 16.6309 7.15534L16.5583 7.21758C15.5366 8.11228 14.6185 9.12627 13.8198 10.2414C13.021 11.3565 12.352 12.5572 11.8333 13.8124C11.7737 13.955 11.6933 14.0847 11.5973 14.1962L11.8411 29.6342L10.4122 29.6291C7.62435 29.668 5.07771 28.7577 3.21052 27.251C1.26293 25.682 0.0388864 23.4673 -1.34338e-05 20.9829V20.9596C-0.0337266 18.483 1.1203 16.2397 3.01083 14.6137C4.69908 13.1615 6.99158 12.2019 9.54081 12.0334C10.0958 10.8171 10.7623 9.66827 11.5273 8.59982C12.4194 7.35244 13.4645 6.19841 14.6367 5.16367L14.7093 5.10144C19.0298 1.32037 24.4887 -0.331571 29.818 0.0522403C35.1161 0.433458 40.2924 2.82969 44.102 7.14756L44.1642 7.22018C44.9526 8.12265 45.6528 9.10552 46.2596 10.1221C46.6331 10.7471 46.9754 11.3902 47.284 12.0386C49.8229 12.2123 52.105 13.1693 53.788 14.6163C55.6812 16.2423 56.8326 18.4882 56.7989 20.9622V20.9855C56.76 23.4699 55.5359 25.6846 53.5884 27.2536C51.9961 28.5373 49.9084 29.3905 47.6004 29.5876C47.1543 30.5912 46.6305 31.5585 46.0262 32.4765C45.2897 33.5994 44.4287 34.6705 43.4407 35.6715L43.4459 35.6741ZM48.0023 14.9509L47.8156 26.7401C49.3664 26.5274 50.7565 25.9284 51.8275 25.0622C53.1345 24.0093 53.9592 22.5597 53.9903 20.9648V20.9414C54.0163 19.3362 53.2383 17.8528 51.9598 16.7532C50.9146 15.8533 49.5454 15.2102 48.0023 14.9483V14.9509Z" fill="url(#paint0_linear_37909_57)"/>
</g>
<defs>
<linearGradient id="paint0_linear_37909_57" x1="-0.000732422" y1="32.9992" x2="56.7996" y2="32.9992" gradientUnits="userSpaceOnUse">
<stop stop-color="white"/>
<stop offset="0.842502" stop-color="white"/>
<stop offset="1" stop-color="#EFEDED"/>
</linearGradient>
<clipPath id="clip0_37909_57">
<rect width="56.8042" height="66" fill="white"/>
</clipPath>
</defs>
</svg>
