<svg width="118" height="66" viewBox="0 0 118 66" fill="none" xmlns="http://www.w3.org/2000/svg">
<g clip-path="url(#clip0_37846_59)">
<path d="M15.9313 18.9978C13.7572 20.4346 12.3586 22.5985 11.8577 24.9329C11.3593 27.2621 11.7483 29.7618 13.1469 31.88L13.1571 31.8952C14.5556 34.0058 16.6967 35.3408 19.0234 35.796C21.3705 36.2512 23.9134 35.8163 26.085 34.3822L26.1384 34.3466C28.2845 32.9098 29.6628 30.7637 30.1586 28.4471C30.657 26.1179 30.268 23.6182 28.8694 21.5C27.4708 19.3818 25.3272 18.0417 22.9954 17.5866C20.6458 17.1288 18.1055 17.5637 15.9313 19.0004V18.9978ZM92.4817 29.7592C92.3342 28.9964 92.8707 28.264 93.6819 28.1242C94.4931 27.9843 95.2712 28.4903 95.4187 29.2532C95.5026 29.6753 95.7925 30.0517 96.2019 30.3238C96.6672 30.634 97.28 30.8069 97.9412 30.7866C98.6125 30.7637 99.2126 30.545 99.6525 30.2017C100.042 29.8965 100.301 29.4948 100.344 29.0599C100.42 28.2869 101.15 27.7224 101.972 27.7936C102.793 27.8673 103.396 28.5514 103.317 29.3219C103.195 30.5246 102.541 31.5901 101.56 32.358C100.626 33.0853 99.3932 33.5481 98.0454 33.5913C96.713 33.6346 95.4568 33.2709 94.4803 32.6225C93.4505 31.9385 92.7131 30.9391 92.4791 29.7592H92.4817ZM51.1779 20.2286C51.0305 19.4657 51.567 18.7334 52.3782 18.5935C53.1893 18.4537 53.9675 18.9597 54.1149 19.7226C54.2802 20.5515 54.8295 21.2788 55.6076 21.795C56.4417 22.3493 57.5275 22.6596 58.6972 22.6214C59.8822 22.5833 60.9502 22.1917 61.7384 21.5738C62.4784 20.9965 62.9667 20.221 63.0557 19.3666C63.1319 18.5935 63.8617 18.029 64.6831 18.1002C65.5044 18.174 66.1071 18.858 66.0283 19.6285C65.863 21.2508 64.9781 22.6875 63.6481 23.7276C62.3665 24.7295 60.6628 25.3626 58.8014 25.4262C56.9604 25.4872 55.2313 24.9837 53.8886 24.0937C52.4901 23.1656 51.4933 21.8153 51.1779 20.2286ZM15.5728 28.6277C15.4253 27.8648 15.9618 27.1325 16.773 26.9926C17.5842 26.8527 18.3623 27.3588 18.5098 28.1216C18.5937 28.5437 18.8836 28.9201 19.293 29.1922C19.7583 29.5024 20.3712 29.6753 21.0298 29.655C21.7011 29.6321 22.3012 29.4134 22.7411 29.0701C23.1327 28.765 23.3895 28.3632 23.4353 27.9284C23.5116 27.1553 24.2414 26.5908 25.0627 26.662C25.8841 26.7358 26.4867 27.4198 26.4079 28.1903C26.2833 29.3931 25.6298 30.4585 24.6508 31.2265C23.7201 31.9537 22.4843 32.4165 21.1366 32.4598C19.8041 32.503 18.5505 32.1394 17.574 31.4909C16.5416 30.8069 15.8067 29.805 15.5728 28.6251V28.6277ZM26.2579 62.6715C27.0665 62.6741 27.7175 63.3454 27.7149 64.1693C27.7124 64.9931 27.0538 65.6594 26.2477 65.6568L0.00537598 65.4839C0.00537598 65.3415 -0.00733833 64.004 0.0104617 63.9862C0.0486046 58.1172 2.4211 52.8179 6.22522 48.9985C10.0268 45.1817 15.26 42.8397 21.0247 42.8728H21.0374C22.8581 42.8829 24.6203 43.1321 26.2884 43.5822C28.0125 44.0476 29.6552 44.7392 31.186 45.6191C31.8903 46.0234 32.1395 46.9337 31.7428 47.6508C31.3462 48.3679 30.4562 48.6222 29.7518 48.2179C28.4498 47.4677 27.036 46.8778 25.5433 46.4735C24.0965 46.0819 22.5835 45.8683 21.0298 45.8581H21.017C16.0559 45.8276 11.55 47.8441 8.27731 51.1269C5.33013 54.0843 3.3823 58.0715 3.00087 62.5164L26.2553 62.669L26.2579 62.6715ZM91.6502 65.8831C90.8415 65.8857 90.1855 65.2195 90.1829 64.3956C90.1804 63.5717 90.8313 62.9004 91.64 62.8978L114.894 62.7453C114.513 58.3029 112.565 54.3131 109.618 51.3558C106.345 48.0704 101.839 46.0539 96.8757 46.0844H96.8656C95.3144 46.0946 93.8014 46.3082 92.3545 46.6998C90.8593 47.1041 89.448 47.694 88.1461 48.4442C87.4417 48.8485 86.5517 48.5942 86.155 47.8771C85.7583 47.16 86.0075 46.2497 86.7119 45.8454C88.2402 44.9656 89.8854 44.2739 91.6095 43.8086C93.2776 43.3585 95.0398 43.1093 96.8605 43.0991H96.8706C102.635 43.0635 107.869 45.408 111.673 49.2248C115.477 53.0442 117.852 58.3436 117.89 64.215L117.895 65.7102L91.6527 65.8806L91.6502 65.8831ZM59.2439 62.8343L83.9427 62.6715C83.5384 56.3245 80.8176 50.6234 76.6371 46.4252C72.1311 41.9039 65.9291 39.1271 59.099 39.1704L59.0837 39.1755C52.2561 39.2161 46.0871 42.0743 41.6371 46.6566C37.5101 50.9057 34.8629 56.6424 34.5375 62.9944L59.2439 62.8317V62.8343ZM85.4634 65.6467C67.5057 65.7636 49.5454 65.8882 31.5852 66.0001L31.575 64.5049C31.5267 56.7339 34.5807 49.6775 39.5571 44.5511C44.5309 39.4297 51.4297 36.2334 59.0735 36.1851L59.0888 36.18C66.7199 36.1393 73.6518 39.2416 78.6866 44.2968C83.724 49.3545 86.867 56.3677 86.9153 64.1387C86.9331 64.1565 86.9204 65.4941 86.9204 65.6365L85.4583 65.6467H85.4634ZM91.1238 20.132L91.0933 20.1574C89.2904 21.8789 88.3927 24.2133 88.3978 26.5959C88.4029 28.9887 89.3234 31.435 91.1543 33.365L91.1823 33.3955C93.0258 35.3256 95.4365 36.3656 97.842 36.48C100.209 36.5945 102.572 35.8112 104.372 34.1075L104.4 34.0821C106.203 32.3606 107.101 30.0262 107.095 27.6461C107.09 25.2406 106.162 22.7842 104.314 20.849L104.27 20.8033C102.432 18.9012 100.039 17.8764 97.6538 17.762C95.2864 17.6476 92.9241 18.4308 91.1263 20.1345L91.1238 20.132ZM89.0081 18.0188L89.0361 17.9909C91.4544 15.6819 94.6253 14.6216 97.7912 14.7741C100.934 14.9242 104.077 16.2744 106.475 18.7842L106.528 18.8402C108.888 21.3373 110.073 24.5184 110.081 27.6436C110.088 30.8018 108.891 33.9117 106.488 36.2206L106.46 36.2486C104.042 38.5601 100.871 39.6179 97.7022 39.4679C94.5719 39.3179 91.4391 37.9778 89.0437 35.4832L89.0157 35.4552C86.6229 32.948 85.4201 29.7465 85.415 26.5985C85.4074 23.4377 86.6051 20.3303 89.0081 18.0214V18.0188ZM49.5581 6.20979C46.8373 8.59245 45.3472 11.8677 45.1412 15.2369C44.9352 18.6139 46.0159 22.0874 48.4317 24.849C50.8474 27.608 54.1429 29.1413 57.5148 29.3829C60.8535 29.6245 64.2686 28.6048 66.9793 26.2679L67.0556 26.2018C69.779 23.8191 71.2666 20.5439 71.4725 17.1772C71.676 13.8282 70.6181 10.3903 68.2482 7.64142L68.1821 7.56513C65.7663 4.80613 62.4733 3.27278 59.099 3.03121C55.7602 2.78964 52.3451 3.80932 49.6344 6.14621L49.5581 6.21233V6.20979ZM42.1559 15.0615C42.4076 10.9548 44.213 6.95484 47.5188 4.02801L47.595 3.9619C50.9465 1.02998 55.1804 -0.251628 59.31 0.0458871C63.4091 0.340859 67.4116 2.19206 70.3638 5.52576L70.43 5.60204C73.3873 8.98151 74.7096 13.2255 74.4579 17.3552C74.2061 21.4619 72.3981 25.4618 69.095 28.3861L69.0187 28.4522C65.6672 31.3841 61.4333 32.6657 57.3012 32.3682C53.1741 32.0707 49.1386 30.1941 46.1812 26.8146C43.2239 23.4351 41.9016 19.1886 42.1533 15.0615H42.1559ZM8.93591 24.315C9.59451 21.2381 11.4305 18.3926 14.2861 16.5058C17.1417 14.619 20.478 14.0494 23.5599 14.6495C26.6597 15.2522 29.5077 17.0348 31.3665 19.8497C33.2279 22.6672 33.7492 25.9831 33.088 29.0676C32.4294 32.1444 30.5935 34.9899 27.7378 36.8742L27.6819 36.9098C24.839 38.7661 21.5256 39.328 18.4615 38.733C15.3617 38.1303 12.5137 36.3478 10.6549 33.5328L10.6193 33.4769C8.78842 30.667 8.27731 27.3766 8.93337 24.315H8.93591Z" fill="#05D0AC"/>
</g>
<defs>
<clipPath id="clip0_37846_59">
<rect width="117.893" height="66" fill="white"/>
</clipPath>
</defs>
</svg>
