<svg width="51" height="66" viewBox="0 0 51 66" fill="none" xmlns="http://www.w3.org/2000/svg">
<g clip-path="url(#clip0_37907_42)">
<path d="M25.1606 63.1201L47.6222 62.9731C47.2547 57.2021 44.7809 52.0173 40.9785 48.1999C36.8813 44.0878 31.2406 41.563 25.0285 41.6017L25.0142 41.6066C18.8047 41.644 13.1957 44.2429 9.14899 48.4105C5.39635 52.2746 2.98991 57.4905 2.69276 63.2684L25.1612 63.1207L25.1606 63.1201ZM47.1519 10.3858V24.4469L49.5446 28.6986C49.9115 29.3539 49.6786 30.1837 49.0232 30.5506C48.8127 30.6683 48.5834 30.7244 48.3579 30.7244L43.1264 30.7262C42.3739 30.7262 41.764 30.1158 41.764 29.3639C41.764 29.0954 41.8419 28.8449 41.9764 28.6344L44.4277 24.2787V11.6479L36.9729 15.1009C38.701 17.8088 39.4572 20.9248 39.271 23.9704C39.0411 27.7342 37.3741 31.3972 34.3266 34.064C31.2786 36.7302 27.4294 37.897 23.6724 37.6254C19.9179 37.3538 16.2493 35.6488 13.5595 32.5745C11.0976 29.7607 9.88157 26.2821 9.87161 22.8273C9.86289 19.9181 10.7126 17.0239 12.3939 14.5539L3.33938 10.1883L5.58698 8.90503C6.38809 8.44779 23.7247 0.280949 23.7739 0.2579L24.324 0L47.9119 10.0344L47.1531 10.3864L47.1519 10.3858ZM45.8624 27.7049L45.7422 27.49L45.4543 28.0015H46.0293L45.8624 27.7049ZM34.4793 16.2552L25.0067 20.6357L14.872 15.7487C13.3483 17.8281 12.5777 20.3193 12.5858 22.8267C12.5939 25.6436 13.5881 28.4836 15.6027 30.786C17.7992 33.2959 20.7956 34.6888 23.863 34.91C26.9279 35.1311 30.0626 34.1848 32.5375 32.0189C35.0131 29.8522 36.368 26.8727 36.5549 23.8103C36.7138 21.2045 36.031 18.5364 34.4786 16.2546L34.4793 16.2552ZM24.3732 2.97582C22.1399 4.02798 13.6336 8.03851 9.36889 10.0793L25.0285 17.6294L41.2108 10.1391L24.3732 2.97644V2.97582ZM49.0045 65.6786C32.6727 65.7857 16.3409 65.8985 0.00910702 66L0.00100871 64.6395C-0.0432205 57.5734 2.7345 51.1564 7.26083 46.4949C11.7834 41.8365 18.0571 38.9317 25.0086 38.8868L25.0229 38.8819C31.9632 38.8457 38.2668 41.6671 42.8454 46.2632C47.4266 50.8624 50.2841 57.2407 50.3295 64.3075C50.3457 64.3237 50.3345 65.5403 50.3345 65.6705L49.0045 65.6792V65.6786Z" fill="url(#paint0_linear_37907_42)"/>
</g>
<defs>
<linearGradient id="paint0_linear_37907_42" x1="0.000488281" y1="33" x2="50.3383" y2="33" gradientUnits="userSpaceOnUse">
<stop stop-color="white"/>
<stop offset="0.842502" stop-color="white"/>
<stop offset="1" stop-color="#EFEDED"/>
</linearGradient>
<clipPath id="clip0_37907_42">
<rect width="50.3383" height="66" fill="white"/>
</clipPath>
</defs>
</svg>
