<?xml version="1.0" encoding="UTF-8"?>
<!DOCTYPE svg PUBLIC "-//W3C//DTD SVG 1.1//EN" "http://www.w3.org/Graphics/SVG/1.1/DTD/svg11.dtd">
<!-- Creator: CorelDRAW -->
<svg xmlns="http://www.w3.org/2000/svg" xml:space="preserve" width="78.9451mm" height="78.8873mm" version="1.1" style="shape-rendering:geometricPrecision; text-rendering:geometricPrecision; image-rendering:optimizeQuality; fill-rule:evenodd; clip-rule:evenodd"
viewBox="0 0 2077.45 2075.93"
 xmlns:xlink="http://www.w3.org/1999/xlink"
 xmlns:xodm="http://www.corel.com/coreldraw/odm/2003">
 <defs>
  <style type="text/css">
   <![CDATA[
    .fil0 {fill:white}
   ]]>
  </style>
 </defs>
 <g id="Слой_x0020_1">
  <metadata id="CorelCorpID_0Corel-Layer"/>
  <path class="fil0" d="M1871.52 2031.68l-830.05 -825.18 -830.5 834c-23.45,23.55 -54.42,35.37 -85.41,35.44 -30.05,0.06 -60.13,-10.95 -83.41,-33.04 -17.51,-0.01 -37.5,-69.27 -37.54,-87.45 -0.06,-30.96 11.62,-61.97 35.07,-85.51l830.35 -833.86 -834.54 -829.64c-23.57,-23.43 -35.41,-54.39 -35.51,-85.38 -0.08,-30.05 10.9,-60.14 32.96,-83.44 0,-17.51 69.24,-37.56 87.42,-37.61 30.96,-0.09 61.97,11.57 85.54,35l834.68 829.79 825.87 -829.35c23.45,-23.55 54.42,-35.37 85.4,-35.44 32.74,-0.07 62.11,12.36 85.52,35.08 23.55,23.45 35.37,54.42 35.44,85.41 0.06,30.96 -11.63,61.96 -35.08,85.51l-825.72 829.21 829.91 825.05c23.57,23.43 35.41,54.39 35.51,85.37 0.09,32.74 -12.31,62.12 -35,85.55 -23.43,23.57 -54.39,35.41 -85.38,35.51 -30.96,0.09 -61.97,-11.57 -85.54,-35z"/>
 </g>
</svg>
