<svg width="242" height="94" viewBox="0 0 242 94" fill="none" xmlns="http://www.w3.org/2000/svg">
<g clip-path="url(#clip0_37950_41)">
<mask id="mask0_37950_41" style="mask-type:luminance" maskUnits="userSpaceOnUse" x="92" y="44" width="150" height="50">
<path d="M242 44H92V94H242V44Z" fill="white"/>
</mask>
<g mask="url(#mask0_37950_41)">
<path d="M99.4001 44L99.4831 55.4405H112.636V62.3079H99.4151C99.3421 72.4063 99.3791 83.0134 99.8083 84.3689C101.189 88.6142 109.634 88.0032 112.844 86.5433L113.793 92.3871C106.598 94.8695 95.6345 95.5602 92.6903 86.4306C92.3852 85.4711 92.1931 84.4351 92.1421 83.3174L91.999 45.9366L99.4001 44Z" fill="#056A80"/>
<path d="M207.862 74.5818C207.813 71.175 206.426 68.098 204.236 65.8823C202.025 63.6439 198.998 62.2832 195.682 62.3142L195.594 62.3277C192.324 62.369 189.372 63.7834 187.255 66.0219C185.119 68.28 183.814 71.3808 183.844 74.7835L183.857 74.8744C183.898 78.2813 185.284 81.3582 187.475 83.574C189.686 85.8124 192.716 87.1731 196.03 87.1441L196.115 87.1307C199.386 87.0893 202.337 85.6749 204.456 83.4344C206.592 81.1763 207.9 78.0734 207.868 74.6687L207.862 74.5818ZM208.856 60.9753C212.269 64.4203 214.419 69.2209 214.486 74.5415L214.499 74.6428C214.527 79.9221 212.508 84.7227 209.206 88.2122C205.891 91.7162 201.277 93.9174 196.154 93.9857L196.056 93.9991C190.935 94.025 186.26 91.9219 182.854 88.482C179.442 85.037 177.292 80.2364 177.225 74.9158L177.212 74.8103C177.186 69.5331 179.203 64.7347 182.505 61.2441C185.817 57.7422 190.431 55.5409 195.554 55.4727L195.656 55.4592C200.777 55.4324 205.452 57.5343 208.857 60.9742L208.856 60.9753Z" fill="#056A80"/>
<path d="M126.036 55.7338C125.912 67.4266 125.868 82.5096 126.377 84.1639C127.353 88.7111 136.658 88.5374 140.383 86.3579L140.295 55.709H146.914L147.025 94.0007H140.406L140.402 92.515C133.177 94.8961 122.119 95.4193 119.26 86.2855C118.955 85.2981 118.763 84.2321 118.712 83.0813L118.537 55.7338H126.036Z" fill="#056A80"/>
<path d="M160.637 44L160.72 55.4405H173.873V62.3079H160.652C160.579 72.4073 160.616 83.0134 161.046 84.3689C162.426 88.6142 170.872 88.0032 174.081 86.5433L175.03 92.3871C167.835 94.8685 156.872 95.5602 153.928 86.4306C153.622 85.4711 153.43 84.4351 153.379 83.3174L153.236 45.9366L160.637 44Z" fill="#056A80"/>
<path d="M227.241 55.7081L227.228 56.9963C229.808 55.9707 232.682 55.6957 235.426 55.8321C237.978 55.9603 240.378 56.4628 242 57.0274L239.898 63.5215C238.759 63.1245 237.018 62.7688 235.114 62.6726C233.245 62.5817 231.272 62.7388 229.686 63.3602C228.512 63.8193 227.571 64.5658 227.2 65.7021L226.861 93.9998L220.579 93.9729L220.622 55.6543L227.241 55.7081Z" fill="#056A80"/>
</g>
<mask id="mask1_37950_41" style="mask-type:luminance" maskUnits="userSpaceOnUse" x="0" y="0" width="78" height="94">
<path d="M77.6147 0H0V94H77.6147V0Z" fill="white"/>
</mask>
<g mask="url(#mask1_37950_41)">
<path d="M9.48347 63.0888L0.127543 17.0238C-0.216451 15.3268 0.15534 13.6514 1.03374 12.3143C1.91144 10.9786 3.29854 9.97911 4.98584 9.63313C6.67245 9.28715 8.33891 9.66109 9.66832 10.5446C10.9963 11.4273 11.9901 12.8224 12.3341 14.5195L14.5509 25.4343L18.4926 5.09694C18.8151 3.39989 19.7963 1.99151 21.1202 1.08707C22.4426 0.184027 24.1056 -0.212277 25.7922 0.112035C27.4795 0.437047 28.8798 1.42257 29.7791 2.75476C30.6769 4.08487 31.071 5.75745 30.7485 7.4538L29.417 14.3217L36.0565 3.21467C36.9411 1.72731 38.34 0.741789 39.8856 0.351076C41.4283 -0.038938 43.1226 0.164457 44.6014 1.05422C46.0802 1.94398 47.0601 3.35097 47.4492 4.90543C47.837 6.4571 47.6348 8.16114 46.7501 9.64851L37.5339 25.0659C37.798 25.0177 38.0634 24.973 38.3296 24.931C40.0857 24.655 41.8564 24.5117 43.6278 24.5117C47.1421 24.5117 50.5737 25.0583 53.8281 26.0864C57.1485 27.1348 60.2805 28.6865 63.1228 30.6715C65.9617 32.653 68.5065 35.0658 70.6553 37.8372C72.7595 40.5505 74.4837 43.6035 75.7332 46.9298C76.3405 48.5514 76.237 50.2652 75.5803 51.7239C74.9215 53.1868 73.7074 54.3974 72.0958 55.0076C70.4836 55.6184 68.7796 55.5143 67.3293 54.8538C65.8748 54.1912 64.6712 52.9701 64.0645 51.3486C63.2632 49.2154 62.1659 47.2667 60.8316 45.5438C59.464 43.7775 57.8462 42.2419 56.0435 40.9831C54.2443 39.7271 52.2526 38.743 50.1338 38.0769C48.0712 37.4283 45.8829 37.083 43.6285 37.083C40.6597 37.083 37.8355 37.6771 35.2663 38.7535C32.5901 39.8746 30.1842 41.5164 28.1724 43.5525C26.1557 45.5948 24.5302 48.0369 23.4218 50.753C22.3586 53.3594 21.7713 56.2307 21.7713 59.2565C21.7713 62.2822 22.3586 65.1535 23.4218 67.7599C24.5302 70.476 26.1557 72.9181 28.1724 74.9605C30.1835 76.9965 32.5894 78.6383 35.2656 79.7595C37.8348 80.8358 40.659 81.43 43.6278 81.43C46.2769 81.43 48.828 80.9505 51.1929 80.0684C53.6404 79.1549 55.8858 77.815 57.8309 76.1326C59.7858 74.4418 61.4473 72.4051 62.7198 70.1056C63.9547 67.8724 64.824 65.3932 65.2375 62.747C65.5009 61.036 66.4266 59.5955 67.7101 58.6505C68.9944 57.7048 70.6407 57.2519 72.3419 57.5168C74.0431 57.7817 75.4753 58.7127 76.4149 60.0036C77.3551 61.2953 77.8055 62.9511 77.5421 64.6621C76.8923 68.8223 75.5316 72.7106 73.5997 76.206C71.6045 79.8154 68.9999 83.0103 65.9366 85.6593C62.8741 88.3083 59.3486 90.4149 55.5126 91.8492C51.7815 93.2443 47.7731 94.0013 43.6285 94.0013C38.9828 94.0013 34.5457 93.0626 30.4935 91.3613C26.2905 89.5972 22.5059 87.0104 19.3349 83.8001C16.5968 81.0281 14.3209 77.7996 12.6343 74.2433C11.004 70.8059 9.91642 67.0505 9.48417 63.0909L9.48347 63.0888ZM3.68075 16.2948L13.0784 62.5667L13.0853 62.6338C13.4655 66.1852 14.4432 69.566 15.9158 72.6693C17.4315 75.8649 19.4662 78.7551 21.9062 81.2259C24.7408 84.095 28.1251 86.4079 31.8854 87.9868C35.4991 89.5035 39.4651 90.3409 43.6271 90.3409C47.3554 90.3409 50.9364 89.6685 54.2457 88.4313C57.6711 87.1508 60.8261 85.2623 63.5759 82.8845C66.3154 80.515 68.6448 77.6584 70.4287 74.4314C72.1598 71.2994 73.378 67.8207 73.959 64.103C74.0681 63.3922 73.8791 62.7016 73.4857 62.1599C73.091 61.6175 72.4934 61.2268 71.7866 61.1171C71.0799 61.0073 70.3933 61.1974 69.8547 61.5931C69.3154 61.9901 68.9269 62.5912 68.8178 63.302C68.3356 66.3913 67.3244 69.2794 65.888 71.876C64.4043 74.5579 62.4668 76.9336 60.1895 78.9032C57.9115 80.8736 55.2958 82.4378 52.457 83.4967C49.6953 84.5277 46.7175 85.0869 43.6271 85.0869C40.176 85.0869 36.8806 84.3914 33.8716 83.1312C30.7534 81.8249 27.9472 79.9097 25.5984 77.5319C23.2502 75.1541 21.3579 72.3094 20.066 69.1452C18.8192 66.0901 18.1313 62.7491 18.1313 59.2558C18.1313 55.7617 18.8199 52.4207 20.066 49.3663C21.3572 46.2022 23.2502 43.3575 25.5984 40.9796C27.9472 38.6018 30.7534 36.686 33.8716 35.3796C36.8806 34.1194 40.176 33.424 43.6264 33.424C46.2414 33.424 48.7932 33.8294 51.2123 34.5898C53.6766 35.365 55.9983 36.5133 58.1026 37.9825C60.2062 39.451 62.0929 41.2417 63.6871 43.3001C65.2493 45.318 66.5301 47.5889 67.4599 50.0625C67.7129 50.7377 68.2146 51.2472 68.8206 51.5233C69.4308 51.8008 70.1438 51.8455 70.8158 51.5911C71.4871 51.3367 71.9937 50.832 72.2682 50.2225C72.5441 49.6096 72.5886 48.8917 72.3356 48.2159C71.2147 45.232 69.6733 42.5005 67.7977 40.0808C65.8762 37.6023 63.6003 35.4453 61.0617 33.6728C58.523 31.9003 55.7211 30.5129 52.7474 29.5742C49.8482 28.6585 46.78 28.1714 43.6278 28.1714C41.985 28.1714 40.4005 28.2951 38.8835 28.5341C37.3136 28.7809 35.775 29.152 34.2788 29.6357L29.6811 31.1237L43.6375 7.77672C44.0051 7.15885 44.0878 6.44592 43.9245 5.7931C43.7619 5.14308 43.354 4.55596 42.7404 4.18621C42.126 3.81717 41.4172 3.73329 40.7681 3.89755C40.1218 4.0611 39.5374 4.47139 39.1705 5.08856L21.9117 33.9608L27.1821 6.76883C27.3183 6.05381 27.155 5.35346 26.7818 4.79989C26.4093 4.24772 25.8228 3.83814 25.1119 3.70114C24.401 3.56415 23.7047 3.7284 23.1543 4.10374C22.606 4.47837 22.198 5.06829 22.0618 5.78331L14.6385 44.0816L8.78228 15.2485C8.63912 14.5426 8.22286 13.9596 7.66552 13.5892C7.10957 13.2194 6.41394 13.0629 5.71205 13.2069C5.01017 13.3508 4.43059 13.7695 4.06227 14.3301C3.69465 14.8892 3.53899 15.5889 3.68214 16.2948H3.68075Z" fill="white"/>
<path d="M11.2806 62.8261L1.90384 16.6591C1.41669 14.2561 2.95875 11.9097 5.34794 11.4197C7.73713 10.9298 10.0693 12.4807 10.5572 14.8837L14.5934 34.7577L20.2759 5.43951C20.7345 3.02674 23.0514 1.44432 25.4504 1.90632C27.8493 2.36763 29.4226 4.69793 28.9633 7.1114L25.6623 24.1413L37.6118 4.15205C38.864 2.04681 41.5757 1.36114 43.6688 2.61995C45.762 3.87946 46.4437 6.60676 45.1921 8.712L33.7229 27.8982C36.8459 26.8875 40.1733 26.3409 43.6257 26.3409C50.368 26.3409 56.7691 28.4559 62.0902 32.1715C67.4086 35.8844 71.6345 41.1894 74.0327 47.5715C74.893 49.8689 73.738 52.4327 71.4538 53.298C69.1695 54.1633 66.6198 53.0016 65.7602 50.7042C64.0096 46.045 60.9345 42.1784 57.0714 39.4819C53.2117 36.7874 48.5515 35.2525 43.6257 35.2525C37.0815 35.2525 31.1627 37.933 26.884 42.2651C22.5997 46.6028 19.9499 52.6088 19.9499 59.2551C19.9499 65.9015 22.6004 71.9075 26.884 76.2452C31.1627 80.5773 37.0822 83.2578 43.6257 83.2578C49.4556 83.2578 54.849 81.1148 59.0082 77.5166C63.1771 73.9114 66.1153 68.8496 67.0256 63.0232C67.3981 60.6006 69.6532 58.9406 72.0618 59.316C74.4705 59.6906 76.121 61.9587 75.7478 64.3812C74.4976 72.3828 70.4684 79.3276 64.7539 84.2706C59.0304 89.2212 51.6224 92.1701 43.6257 92.1701C34.6465 92.1701 26.5122 88.4789 20.6185 82.512C15.5135 77.3433 12.0979 70.474 11.2792 62.8268L11.2806 62.8261Z" fill="#01607E"/>
<path d="M38.6226 63.7509L25.9685 63.7502C26.5988 67.0003 28.1742 69.9016 30.391 72.1473C32.5954 74.3791 35.4391 75.9678 38.6226 76.6108V63.7509ZM47.8485 54.9385L60.5026 54.9392C59.8723 51.6891 58.2969 48.7877 56.0801 46.542C53.8757 44.3103 51.0321 42.7216 47.8485 42.0785V54.9385ZM41.4815 35.3602V35.3574H41.8061H44.665H44.9896V35.3602C51.0724 35.4476 56.5756 37.9834 60.5819 42.0394C64.4909 45.9975 66.9683 51.3962 67.1622 57.3708H67.1747V58.1278V60.5602V61.3185H67.1622C66.9683 67.2938 64.4909 72.6918 60.5819 76.65C56.5756 80.706 51.0724 83.2418 44.9896 83.3291V83.3319H44.665H41.8061H41.4815V83.3291C35.3988 83.2418 29.8956 80.706 25.8892 76.65C21.9802 72.6918 19.5028 67.2931 19.3089 61.3185H19.2964V60.5616V58.1292V57.3708H19.3089C19.5028 51.3955 21.9802 45.9975 25.8892 42.0394C29.8956 37.9834 35.3988 35.4476 41.4815 35.3602ZM60.5026 63.7502L47.8485 63.7509V76.6108C51.0321 75.9678 53.875 74.3791 56.0801 72.1473C58.2976 69.9023 59.8723 67.001 60.5026 63.7502ZM25.9685 54.9392L38.6226 54.9385V42.0785C35.4391 42.7216 32.5961 44.3103 30.391 46.542C28.1735 48.787 26.5988 51.6884 25.9685 54.9392Z" fill="#FAF7F7"/>
<path fill-rule="evenodd" clip-rule="evenodd" d="M41.8062 58.1271L22.48 58.1285V58.1271C22.48 47.3199 31.1326 38.5586 41.8062 38.5586V58.1271Z" fill="#FF0000"/>
<path fill-rule="evenodd" clip-rule="evenodd" d="M44.665 58.1271L63.9912 58.1285V58.1271C63.9912 47.3199 55.3386 38.5586 44.665 38.5586V58.1271Z" fill="#00FF00"/>
<path fill-rule="evenodd" clip-rule="evenodd" d="M44.665 60.56L63.9912 60.5586V60.56C63.9912 71.3672 55.3386 80.1285 44.665 80.1285V60.56Z" fill="#FADB12"/>
<path fill-rule="evenodd" clip-rule="evenodd" d="M41.8062 60.56L22.48 60.5586V60.56C22.48 71.3672 31.1326 80.1285 41.8062 80.1285V60.56Z" fill="#0000FF"/>
<path fill-rule="evenodd" clip-rule="evenodd" d="M50.3165 65.2346L52.4632 67.3978L55.2638 64.5943L57.0873 66.4018L54.2714 69.2207L57.0498 72.0186L55.2714 73.8351L52.4771 71.0198L49.6702 73.8302L47.8613 72.0109L50.6696 69.1969L47.8808 66.3871L49.6723 64.5859L50.3165 65.2346Z" fill="white"/>
<path d="M32.7775 44.6797H34.4113V48.2737H37.9846V50.8318H34.4113V54.4258H31.8685V50.8318H28.2944V48.2737H31.8685V44.6797H32.7775Z" fill="white"/>
<path fill-rule="evenodd" clip-rule="evenodd" d="M29.189 67.9297H38.0001V70.4878H28.2793V67.9297H29.189Z" fill="white"/>
<path fill-rule="evenodd" clip-rule="evenodd" d="M48.5215 48.3509H57.3326V50.9083H47.6118V48.3509H48.5215ZM54.2214 53.5203C54.2214 53.7558 54.1769 53.9795 54.0886 54.192C54.0025 54.401 53.876 54.5883 53.7106 54.7546V54.7581C53.3701 55.1006 52.9614 55.2691 52.4798 55.2691C52.2512 55.2691 52.0288 55.225 51.8148 55.1363C51.5987 55.0454 51.4096 54.9196 51.2484 54.7581C51.0851 54.5939 50.9586 54.4052 50.8704 54.192C50.7828 53.9795 50.7376 53.7558 50.7376 53.5203C50.7376 53.2861 50.7821 53.0625 50.8704 52.85C50.9559 52.6424 51.0809 52.4558 51.2449 52.2887C51.4124 52.1175 51.6014 51.9875 51.812 51.8994C52.0281 51.8107 52.2512 51.7659 52.4798 51.7659C52.714 51.7659 52.9371 51.8107 53.1484 51.8994H53.1519C53.3582 51.9868 53.5459 52.1161 53.7147 52.2887C53.8781 52.4558 54.0038 52.6431 54.0886 52.85C54.1762 53.0625 54.2214 53.2861 54.2214 53.5203ZM54.2061 45.5893C54.2061 45.8193 54.1623 46.0422 54.074 46.2582C53.9865 46.4728 53.8614 46.6636 53.6981 46.8279L53.6967 46.8265C53.532 46.9935 53.3443 47.1214 53.1373 47.2081C52.926 47.2962 52.7029 47.3416 52.4701 47.3416C52.2401 47.3416 52.0177 47.2969 51.8044 47.2088C51.5945 47.1221 51.4062 46.9956 51.2408 46.8321L51.2338 46.8286C51.0719 46.6657 50.9461 46.4763 50.8572 46.261C50.7682 46.0485 50.7237 45.8242 50.7237 45.5907C50.7237 45.3552 50.7682 45.1308 50.8565 44.919C50.9426 44.71 51.0698 44.5213 51.238 44.3529L51.2415 44.3494C51.4076 44.1851 51.5952 44.0593 51.8051 43.9726C52.0184 43.8839 52.2401 43.8398 52.4708 43.8398C52.7029 43.8398 52.926 43.8846 53.138 43.9733C53.3457 44.06 53.5327 44.1886 53.6974 44.355L53.6988 44.3536C53.8621 44.5178 53.9872 44.7079 54.0754 44.9232C54.163 45.1378 54.2068 45.3608 54.2068 45.5914L54.2061 45.5893Z" fill="white"/>
</g>
</g>
<defs>
<clipPath id="clip0_37950_41">
<rect width="242" height="94" fill="white"/>
</clipPath>
</defs>
</svg>
