<svg width="68" height="54" viewBox="0 0 68 54" fill="none" xmlns="http://www.w3.org/2000/svg">
<path d="M62.3381 4.52344H7.42856C6.09849 4.52344 5.02026 5.40214 5.02026 6.48607V12.3738C5.02026 13.4577 6.09849 14.3364 7.42856 14.3364H62.3381C63.6681 14.3364 64.7464 13.4577 64.7464 12.3738V6.48607C64.7464 5.40214 63.6681 4.52344 62.3381 4.52344Z" fill="white"/>
<path d="M62.3381 21.7363H7.42856C6.09849 21.7363 5.02026 22.615 5.02026 23.699V29.5866C5.02026 30.6706 6.09849 31.5493 7.42856 31.5493H62.3381C63.6681 31.5493 64.7464 30.6706 64.7464 29.5866V23.699C64.7464 22.615 63.6681 21.7363 62.3381 21.7363Z" fill="white"/>
<path d="M62.3381 38.9492H7.42856C6.09849 38.9492 5.02026 39.8279 5.02026 40.9119V46.7995C5.02026 47.8835 6.09849 48.7622 7.42856 48.7622H62.3381C63.6681 48.7622 64.7464 47.8835 64.7464 46.7995V40.9119C64.7464 39.8279 63.6681 38.9492 62.3381 38.9492Z" fill="white"/>
</svg>
