<?xml version="1.0" encoding="UTF-8"?>
<!DOCTYPE svg PUBLIC "-//W3C//DTD SVG 1.1//EN" "http://www.w3.org/Graphics/SVG/1.1/DTD/svg11.dtd">
<!-- Creator: CorelDRAW -->
<svg xmlns="http://www.w3.org/2000/svg" xml:space="preserve" width="218.596mm" height="156.093mm" version="1.1" style="shape-rendering:geometricPrecision; text-rendering:geometricPrecision; image-rendering:optimizeQuality; fill-rule:evenodd; clip-rule:evenodd"
viewBox="0 0 1339.21 956.29"
 xmlns:xlink="http://www.w3.org/1999/xlink"
 xmlns:xodm="http://www.corel.com/coreldraw/odm/2003">
 <defs>
  <style type="text/css">
   <![CDATA[
    .fil1 {fill:black}
    .fil0 {fill:#E01616}
   ]]>
  </style>
 </defs>
 <g id="Слой_x0020_1">
  <metadata id="CorelCorpID_0Corel-Layer"/>
  <g id="_2096059978560">
   <path class="fil0" d="M2.45 598.98c3.51,85.69 5.96,197.79 38.83,249.55 32.88,51.76 60.98,80.08 143.58,89.99 81.93,9.83 183.6,14.93 409.4,16.93 225.79,2 519.16,2.41 595.07,-22.78 75.91,-25.18 104.16,-45.57 128.68,-139.87 24.51,-94.3 21.03,-249.81 21.03,-359.21 0,-37.97 -1.17,-192.52 -22.67,-273.63 -21.5,-81.11 -54.18,-119.3 -128.03,-139.25 -65.83,-17.79 -370,-22.26 -595.79,-20.26 -225.79,2 -326.76,10.68 -409.63,17.98 -65.21,5.75 -100.99,23.01 -140.96,85.92 -47.07,74.1 -44.2,380.33 -39.52,494.64z"/>
   <path class="fil1" d="M554.56 755.35c-8.58,6.15 -18.23,8.52 -27.1,8.52 -26.16,0 -46.89,-20.27 -48.49,-45.85l0.31 -485.61c1.9,-24.43 24.17,-42.31 47.19,-42.31 7.11,0 16.12,2.37 22.84,5.45l380.69 237.74c15.87,8.84 28.18,25.05 27.21,44.16 -0.66,12.99 -5.24,26.95 -16.26,34.46l-386.39 243.44z"/>
  </g>
 </g>
</svg>
