<?xml version="1.0" encoding="UTF-8"?>
<!DOCTYPE svg PUBLIC "-//W3C//DTD SVG 1.1//EN" "http://www.w3.org/Graphics/SVG/1.1/DTD/svg11.dtd">
<!-- Creator: CorelDRAW -->
<svg xmlns="http://www.w3.org/2000/svg" xml:space="preserve" width="18.8202mm" height="18.7614mm" version="1.1" style="shape-rendering:geometricPrecision; text-rendering:geometricPrecision; image-rendering:optimizeQuality; fill-rule:evenodd; clip-rule:evenodd"
viewBox="0 0 72.15 71.93"
 xmlns:xlink="http://www.w3.org/1999/xlink"
 xmlns:xodm="http://www.corel.com/coreldraw/odm/2003">
 <defs>
  <style type="text/css">
   <![CDATA[
    .str2 {stroke:black;stroke-width:0.77;stroke-miterlimit:22.9256;stroke-opacity:0.501961}
    .str1 {stroke:black;stroke-width:2.11;stroke-miterlimit:22.9256}
    .str0 {stroke:black;stroke-width:2.11;stroke-miterlimit:22.9256}
    .fil4 {fill:none}
    .fil7 {fill:#333333}
    .fil5 {fill:#666666}
    .fil0 {fill:#ED7F2A}
    .fil1 {fill:white}
    .fil3 {fill:black;fill-rule:nonzero}
    .fil2 {fill:#333333;fill-rule:nonzero}
    .fil6 {fill:white;fill-opacity:0.501961}
   ]]>
  </style>
 </defs>
 <g id="Слой_x0020_1">
  <metadata id="CorelCorpID_0Corel-Layer"/>
  <path class="fil0" d="M0.24 0l14.18 5.71 43.45 0.79 14.06 -6.5 0 71.7 -44.2 0.2c-20.17,0.71 -27.91,-12.04 -27.5,-24.64l0 -47.26z"/>
  <g id="_1441262629808">
   <path class="fil1" d="M32.01 42.21c0.96,-5.92 3.28,-19.71 7.6,-24.03 0.84,5.68 2.81,24.9 0.12,29.54 -3.27,5.64 -8.75,0.82 -7.72,-5.52z"/>
   <path class="fil2" d="M36.18 45.04c0.54,-1.07 1.07,-1.61 2.15,-1.61 1.18,0 2.15,0.96 2.15,2.15 0,2.15 -2.15,4.29 -4.29,6.44 -2.15,-2.15 -4.29,-4.29 -4.29,-6.44 0,-1.18 0.96,-2.15 2.15,-2.15 1.07,0 1.61,0.54 2.15,1.61z"/>
   <g>
    <polygon class="fil3" points="25.27,53.35 26.25,52.06 26.66,52.78 27.08,53.42 27.5,53.99 27.92,54.49 28.35,54.93 28.77,55.31 29.2,55.62 29.62,55.88 30.04,56.09 30.45,56.24 30.85,56.34 31.25,56.39 31.63,56.4 32,56.37 32.37,56.29 32.71,56.18 33.04,56.02 33.36,55.84 33.65,55.62 33.92,55.38 34.17,55.11 34.4,54.81 34.6,54.5 34.78,54.17 34.93,53.82 35.05,53.46 35.15,53.08 35.22,52.7 35.26,52.3 35.27,51.89 35.25,51.47 35.19,51.03 36.43,50.54 36.52,51.2 36.55,51.85 36.53,52.49 36.47,53.12 36.36,53.72 36.21,54.3 36.03,54.85 35.8,55.37 35.55,55.85 35.26,56.3 34.95,56.7 34.61,57.07 34.24,57.4 33.86,57.69 33.45,57.93 33.02,58.12 32.58,58.27 32.13,58.36 31.66,58.41 31.18,58.39 30.69,58.33 30.2,58.2 29.7,58.02 29.19,57.77 28.69,57.46 28.18,57.09 27.68,56.64 27.18,56.13 26.69,55.54 26.21,54.89 25.73,54.16 "/>
   </g>
   <g>
    <polygon class="fil3" points="47.89,53.35 47.37,54.16 46.84,54.89 46.29,55.54 45.74,56.13 45.18,56.64 44.61,57.09 44.04,57.46 43.47,57.77 42.91,58.02 42.34,58.2 41.78,58.33 41.23,58.39 40.69,58.41 40.17,58.36 39.65,58.27 39.16,58.12 38.68,57.93 38.22,57.69 37.79,57.4 37.38,57.07 36.99,56.71 36.64,56.3 36.32,55.85 36.03,55.37 35.78,54.85 35.57,54.3 35.4,53.72 35.28,53.12 35.21,52.49 35.19,51.85 35.23,51.2 35.32,50.54 36.72,51.03 36.65,51.47 36.63,51.89 36.64,52.3 36.69,52.7 36.76,53.08 36.87,53.46 37.01,53.82 37.18,54.16 37.38,54.5 37.61,54.81 37.86,55.11 38.15,55.38 38.45,55.62 38.78,55.84 39.14,56.03 39.51,56.18 39.9,56.29 40.31,56.37 40.73,56.4 41.16,56.39 41.61,56.34 42.06,56.24 42.52,56.09 42.99,55.88 43.47,55.62 43.95,55.31 44.42,54.93 44.9,54.49 45.38,53.99 45.85,53.42 46.32,52.78 46.79,52.06 "/>
   </g>
  </g>
  <path class="fil4 str0" d="M11.57 29.59c2.61,-2.92 9.13,-3.23 11.22,1.94"/>
  <path class="fil5" d="M39.29 32.79c0.64,8.91 8.13,13.93 18.23,12.21 4.29,-0.73 10.49,-5.15 11.04,-9.92 0.18,-1.54 -0.1,-5.85 0.43,-7.45 0.68,-2.04 1.42,-2 3.07,-2.16 0,0 0.25,-3.79 -0.04,-4.87 -0.23,-0.83 -0.46,-1.35 -2.27,-1.43 -1.54,-0.12 -7.78,-0.12 -15.61,-0.3 -6.11,0.34 -11.58,0.04 -12.75,2.2 -0.13,0.26 -0.26,0.5 -0.39,0.73 -2.87,0.4 -7.16,0.31 -9.86,-0.26 -0.11,-0.2 -0.23,-0.42 -0.35,-0.65 -1.17,-2.16 -6.64,-1.86 -12.75,-2.2 -7.84,0.18 -14.07,0.18 -15.61,0.3 -1.81,0.07 -2.05,0.6 -2.27,1.43 -0.29,1.08 -0.04,4.87 -0.04,4.87 1.65,0.17 2.39,0.13 3.07,2.16 0.53,1.6 0.25,5.91 0.43,7.45 0.55,4.76 6.75,9.18 11.04,9.91 10.09,1.72 17.59,-3.3 18.23,-12.21 0.14,-1.91 0.18,-3.41 0.14,-4.62 1.54,-0.84 4.2,-1.23 6.14,-0.25 -0.06,1.28 -0.03,2.9 0.13,5.05zm4.81 -10.46l19.64 0c1.18,0 2.42,0.94 2.42,2.13l0.01 8.93c-0.7,5.53 -6.19,9.84 -12.18,9.84 -5.99,0 -11.17,-4.46 -12.03,-10l-0.01 -8.73c-0,-1.19 0.97,-2.17 2.15,-2.17zm-35.88 0l19.65 0c1.18,0 2.42,0.94 2.42,2.13l0.01 8.93c-0.7,5.53 -6.19,9.84 -12.18,9.84 -5.99,0 -11.17,-4.46 -12.03,-10l-0.01 -8.73c-0,-1.19 0.97,-2.17 2.15,-2.17z"/>
  <path class="fil4 str1" d="M47.59 29.59c2.61,-2.92 9.13,-3.23 11.22,1.94"/>
  <path class="fil6 str2" d="M43.74 22.02l20.41 0c1.23,0 2.51,0.97 2.51,2.21l0.01 9.28c-0.72,5.75 -6.43,10.23 -12.66,10.23 -6.22,0 -11.6,-4.63 -12.5,-10.39l-0.01 -9.07c-0,-1.24 1,-2.25 2.23,-2.25z"/>
  <path class="fil6 str2" d="M7.57 22.18l20.41 0c1.23,0 2.51,0.97 2.51,2.21l0.01 9.28c-0.72,5.75 -6.43,10.23 -12.66,10.23 -6.22,0 -11.6,-4.63 -12.5,-10.39l-0.01 -9.07c-0,-1.24 1,-2.25 2.23,-2.25z"/>
  <g id="_1441262646224">
   <path class="fil7" d="M53.21 47.84c0.87,-0.37 16.53,-2.98 16.53,-2.98l-1.18 3.98 -15.28 -0.19 -0.06 -0.81z"/>
   <polygon class="fil7" points="53.52,51.32 68.37,51.76 66.87,55.11 53.39,52.13 "/>
  </g>
  <path class="fil7" d="M18.54 47.84c-0.87,-0.37 -16.53,-2.98 -16.53,-2.98l1.18 3.98 15.28 -0.19 0.06 -0.81z"/>
  <polygon class="fil7" points="18.23,51.32 3.38,51.76 4.87,55.11 18.35,52.13 "/>
 </g>
</svg>
